<svg width="61" height="60" viewBox="0 0 61 60" fill="none" xmlns="http://www.w3.org/2000/svg">
<g clip-path="url(#clip0_164_31902)">
<path d="M37.7068 36.4307C40.0637 40.7359 42.3643 44.9325 44.6608 49.1291C46.3636 52.2428 48.0644 55.3586 49.7571 58.4763C50.373 59.6095 50.1456 59.9959 48.8635 59.9959C36.791 59.9999 24.7185 59.9999 12.6461 59.9959C11.4666 59.9959 11.209 59.5954 11.7524 58.5991C15.953 50.8983 20.1617 43.2016 24.3683 35.5068C24.4327 35.3901 24.5233 35.2895 24.6441 35.1224C25.6907 35.7302 26.2925 37.4129 27.7055 36.9701C28.8386 36.6138 29.7806 35.6517 31.0406 34.8024C31.5881 35.3941 32.2905 36.1932 33.0372 36.948C34.6253 38.5541 35.4847 38.5541 37.0808 37.0003C37.2459 36.8393 37.421 36.6903 37.7068 36.4327V36.4307Z" fill="#262626"/>
<path d="M34.0615 2.08118H51.2464C50.9988 2.4475 50.8639 2.69104 50.6868 2.90036C49.5818 4.20463 48.4587 5.49278 47.3577 6.79906C46.3815 7.9584 46.3956 9.07145 47.3819 10.2348C48.6358 11.7102 49.8978 13.1775 51.3067 14.8199H34.0615V2.08118Z" fill="#FF9E66"/>
<path d="M9.10552 59.9235H0.56543C4.07767 53.6438 7.49331 47.5411 10.913 41.4264C12.3917 42.5374 14.0173 42.4522 15.7899 41.1708C15.82 41.1849 15.8563 41.1929 15.8804 41.213C17.2169 42.3442 17.4671 43.672 16.6312 45.1963C14.4151 49.2459 12.181 53.2855 10.0052 57.3553C9.59663 58.1201 9.41749 59.0077 9.10552 59.9215V59.9235Z" fill="#262626"/>
<path d="M45.6051 40.9855C47.442 42.4803 49.1267 42.6246 50.6591 41.4183C54.0787 47.535 57.4903 53.6357 61.0006 59.9134H52.4907C52.1425 58.9594 51.9231 58.0234 51.4823 57.2022C49.0972 52.75 46.6718 48.32 44.2223 43.904C43.8721 43.272 43.8419 42.8735 44.4256 42.3824C44.8785 42.002 45.2045 41.4686 45.6051 40.9835V40.9855Z" fill="#262626"/>
<path d="M36.6677 34.5226C36.1303 34.9876 35.6251 35.4244 34.9589 36.004C34.1558 35.1526 33.3165 34.2167 32.4269 33.3291C31.3078 32.214 30.229 32.2462 29.1179 33.3653C28.6288 33.8564 28.1317 34.3435 27.4554 35.0158C26.9784 34.4603 26.4893 33.9551 26.0908 33.3875C25.9458 33.1801 25.8915 32.7555 26.0062 32.5421C27.3085 30.0946 28.6369 27.6612 29.9894 25.2399C30.4765 24.3683 31.1206 24.3965 31.6218 25.3063C33.2843 28.3173 34.9267 31.3385 36.6677 34.5247V34.5226Z" fill="#FF9E66"/>
<path d="M31.813 22.5126H29.7197V21.5082C29.7197 14.9024 29.7197 8.29654 29.7218 1.69271C29.7218 1.3586 29.6473 0.954036 29.8043 0.708481C30.0116 0.388454 30.4242 -0.0140957 30.7301 -6.42508e-06C31.0965 0.0181083 31.4789 0.402543 31.7788 0.704455C31.9056 0.831258 31.8533 1.1533 31.8533 1.38678C31.8573 8.22609 31.8553 15.0674 31.8533 21.9067C31.8533 22.102 31.8271 22.2952 31.811 22.5126H31.813Z" fill="#FF9E66"/>
<path d="M15.7256 32.8843C16.0818 33.4297 16.2932 33.7155 16.4663 34.0235C17.3398 35.5693 18.1992 37.1211 19.0687 38.6669C19.4968 39.4291 19.4391 40.1718 18.8956 40.895C17.9658 40.2167 17.1224 39.313 16.0858 38.9185C14.8037 38.4334 14.1456 39.8101 13.1311 40.5569C12.8232 40.1543 12.5213 39.7618 12.1328 39.2526C13.2418 37.2862 14.4253 35.1889 15.7256 32.8802V32.8843Z" fill="#262626"/>
<path d="M49.5057 39.3814C49.1273 39.796 48.7932 40.1604 48.4732 40.5106C46.6577 39.2036 44.7449 39.3593 42.7348 40.9775C42.0505 40.2811 41.9015 39.6008 42.4711 38.691C43.4111 37.1875 44.2222 35.6055 45.0937 34.0597C45.2689 33.7498 45.4721 33.4559 45.8365 32.8802C46.5349 34.1 47.1246 35.1164 47.7023 36.1389C48.294 37.1875 48.8757 38.2442 49.5057 39.3814Z" fill="#262626"/>
</g>
<defs>
<clipPath id="clip0_164_31902">
<rect width="60.4348" height="60" fill="white" transform="translate(0.56543)"/>
</clipPath>
</defs>
</svg>
