<svg width="200" height="200" viewBox="0 0 200 200" fill="none" xmlns="http://www.w3.org/2000/svg">
<path d="M120.22 3.67969C120.688 3.72986 121.14 3.78004 121.608 3.84694C121.157 3.78004 120.688 3.72986 120.22 3.67969Z" fill="#262626"/>
<path d="M149.135 13.0122L146.61 11.6576C146.543 11.6241 146.46 11.5739 146.393 11.5405C146.125 11.4067 145.858 11.2729 145.59 11.1391C145.757 11.2227 145.941 11.3064 146.125 11.39C145.724 11.1726 145.322 10.9719 144.921 10.7545L143.148 9.95171C143.299 10.0186 143.466 10.1022 143.617 10.1691C141.443 9.1657 139.235 8.26263 136.961 7.45989C127.244 5.16874 117.227 4.21546 99.9844 3.93115C131.943 5.50318 142.914 10.0688 146.593 11.6408C147.446 12.0756 148.299 12.5272 149.135 13.0122Z" fill="#262626"/>
<path d="M123.699 2.9101C122.444 2.60907 121.19 2.30804 120.12 2.07391L119.451 1.94009C115.772 1.35476 108.463 2.50874 99.9844 3.9637C100.72 3.86336 101.439 3.77973 102.175 3.69612C116.206 2.09064 120.27 2.35823 123.699 2.92684V2.9101Z" fill="#262626"/>
<path d="M113.347 0.902713C112.243 0.752199 110.872 0.601685 109.801 0.484619C109.801 0.484619 109.768 0.484619 109.751 0.484619C109.55 0.53479 109.517 0.551526 99.9844 3.94645C111.055 1.00307 112.143 0.98633 113.631 0.952882C113.547 0.952882 113.447 0.936177 113.347 0.919453V0.902713Z" fill="#262626"/>
<path d="M66.0863 194.146C66.3204 194.23 66.5713 194.313 66.8222 194.414C68.5949 195.016 70.8024 195.701 72.4915 196.22C74.2475 196.721 76.6056 197.273 78.3783 197.691C55.3162 192.056 35.6324 179.429 19.8953 160.13L24.3271 165.599C24.879 166.217 25.364 166.769 25.8323 167.271C27.4712 168.977 29.4111 170.95 31.3845 172.857C32.6054 173.977 34.1272 175.315 36.2344 177.188C37.3215 178.058 38.5925 179.028 39.8969 179.998C51.0851 188.242 58.7279 191.286 66.103 194.163L66.0863 194.146Z" fill="#262626"/>
<path d="M105.002 0.268023C104.852 0.217852 104.668 0.150998 104.517 0.100827C104.517 0.100827 104.501 0.100827 104.484 0.100827C103.447 0.0506554 102.811 0.0339174 102.745 0.0339174C102.159 0.0339174 101.423 0.000488281 100.805 0.000488281C101.975 0.0506595 102.009 0.0840927 102.544 0.769766C102.321 1.57251 101.474 2.63167 100.002 3.94727C104.701 1.33836 104.852 0.836631 105.019 0.268023H105.002Z" fill="#262626"/>
<path d="M6.73331 136.617C25.0625 179.898 70.9692 196.471 87.1913 199.197C87.2749 199.197 87.3418 199.214 87.4254 199.231C88.2783 199.331 89.3486 199.448 90.1848 199.532L91.8906 199.682C91.8906 199.682 91.9575 199.682 91.9743 199.682C82.4083 198.796 16.617 179.379 1.7998 119.659C1.96704 120.545 2.11756 121.415 2.28479 122.218C3.38856 126.382 5.07766 131.834 6.49918 135.981C6.5828 136.199 6.66642 136.399 6.73331 136.617Z" fill="#262626"/>
<path d="M97.1916 0.769282C99.4661 1.62219 99.5831 2.12389 99.9845 3.94678C101.64 0.217388 98.1951 0.150513 95.1513 0.100342C94.081 0.150513 92.6595 0.250829 91.6059 0.334448L90.6025 0.418097C92.1578 0.317755 95.4022 0.100332 97.1916 0.769282Z" fill="#262626"/>
<path d="M97.7266 199.983C98.1112 199.983 98.4792 200 98.8638 200H99.031C99.031 200 99.1648 200 99.215 200C99.6498 200 100.068 200 100.503 200C100.871 200 101.239 200 101.556 200C101.573 200 101.59 200 101.606 200C94.0139 199.866 -14.6235 158.692 2.93639 75.0403C2.93639 75.0403 2.93639 75.0402 2.93639 75.057C2.33433 77.415 1.749 80.5926 1.24729 82.9673C0.762299 86.011 0.360929 90.1084 0.0264541 93.1688C-1.76299 168.208 87.7927 199.03 97.7266 199.983Z" fill="#262626"/>
<path d="M81.3545 1.7396C81.1538 1.77305 80.9364 1.82323 80.7357 1.85668C92.9608 -0.233789 98.0615 2.77649 100.001 3.94715C96.5397 0.134134 90.5191 0.201017 81.3712 1.7396H81.3545Z" fill="#262626"/>
<path d="M12.7043 50.857C-31.4296 135.947 92.1923 196.019 106.976 199.749C107.076 199.749 107.177 199.749 107.277 199.732L107.929 199.682C108.03 199.682 108.13 199.665 108.247 199.648C109 199.581 109.903 199.481 110.672 199.414C110.772 199.414 110.873 199.397 110.956 199.381C93.4466 186.069 72.1405 178.81 55.2663 164.495C47.0048 157.488 27.6554 141.082 16.3501 119.14C-6.27711 75.2403 13.8583 47.2447 23.742 35.2036C23.3908 35.605 23.0563 36.0063 22.7219 36.391L21.0495 38.3811C18.4406 41.9767 15.146 46.9102 12.788 50.7065C12.7545 50.7567 12.7378 50.8068 12.7043 50.857Z" fill="#262626"/>
<path d="M76.8393 2.69235C76.8393 2.69235 76.9564 2.6589 77.0233 2.64218C76.8727 2.67562 76.6888 2.70907 76.555 2.74251C75.4512 2.99337 74.013 3.37801 72.9259 3.67904C70.685 4.29782 67.7248 5.21763 65.5508 6.0371C64.2129 6.53881 62.4401 7.20776 61.1357 7.75964C59.5637 8.42859 57.5066 9.39857 55.9513 10.1177C54.3626 10.8535 52.3056 11.9406 50.8004 12.8269C49.0277 13.8638 46.8369 15.2184 44.8969 16.4727C24.9121 30.2196 9.14156 52.2782 11.3156 77.1465C16.4666 135.813 82.91 176.051 107.912 191.202C113.687 194.703 116.742 197.134 117.077 198.494C117.077 198.494 117.194 198.477 117.244 198.461C118.615 198.21 120.338 197.842 121.709 197.557C121.759 197.557 121.809 197.541 121.86 197.524C122.345 197.357 122.696 196.654 123.03 196.253C121.893 194.062 119.669 192.49 107.644 184.613C76.7055 164.344 45.5659 141.031 27.3872 108.002C-13.6362 33.4306 65.9187 -5.15111 100.002 3.92989C93.3958 1.37115 85.3517 1.08685 76.856 2.67561L76.8393 2.69235Z" fill="#262626"/>
<path d="M111.423 176.285C130.254 189.597 134.736 192.758 128.783 195.701C128.85 195.685 128.916 195.668 128.967 195.651C129.886 195.367 130.923 195.016 131.944 194.681C132.646 194.447 133.332 194.196 134.017 193.945C142.446 190.032 135.104 184.613 117.544 171.686C98.1281 157.387 73.9455 139.593 53.4422 113.571C-7.09776 36.7421 57.5228 -1.2877 99.9677 3.94683C51.7364 -6.50551 -52.0512 60.7908 111.407 176.285H111.423Z" fill="#262626"/>
<path d="M122.495 161.334C144.453 178.175 152.681 184.48 141.777 190.768C141.861 190.734 141.944 190.684 142.028 190.651C143.851 189.781 146.125 188.577 147.881 187.69C156.377 182.724 152.982 176.954 148.048 171.468C127.395 148.507 99.9676 133.288 78.8121 110.895C10.7297 38.8157 56.4023 2.95997 99.9844 3.9634C55.5661 -0.0837507 -23.7379 49.2178 122.495 161.351V161.334Z" fill="#262626"/>
<path d="M139.469 147.404C160.391 164.161 167.849 173.175 156.678 182.239C158.585 180.902 161.009 178.995 162.916 177.54C163.869 176.754 164.873 175.901 165.826 175.048C174.506 167.104 169.639 162.806 111.24 111.364C26.584 36.8097 64.7308 10.4865 92.325 4.98438C67.3063 9.6503 -2.46519 33.6823 139.469 147.404Z" fill="#262626"/>
<path d="M98.8642 4.03101C96.8072 4.21497 94.5996 4.53273 92.3085 4.98427C95.2519 4.43239 97.5597 4.14807 98.8642 4.03101Z" fill="#262626"/>
<path d="M99.9855 3.94653C99.9855 3.94653 99.5172 3.97996 98.865 4.03013C99.2329 3.99668 99.6176 3.96326 99.9855 3.94653Z" fill="#262626"/>
<path d="M135.572 114.592C170.274 142.52 183.302 155.297 172.013 169.178C172.097 169.094 172.164 169.028 172.231 168.944C174.004 167.037 176.144 164.512 177.817 162.589C177.85 162.539 177.883 162.505 177.917 162.455C187.801 149.511 178.352 135.881 137.613 104.223C31.3165 21.6411 87.6254 6.22182 100.001 3.96411C90.9869 5.10133 15.4122 17.895 135.589 114.592H135.572Z" fill="#262626"/>
<path d="M142.747 92.2484C182.015 121.582 192.818 136.583 185.477 151.584C185.778 151.083 186.062 150.598 186.346 150.113L186.614 149.644C186.814 149.293 186.998 148.975 187.182 148.658L189.423 144.343C189.691 143.791 189.959 143.239 190.226 142.704C198.989 122.602 165.776 98.4195 143.734 82.3814C71.9056 30.1197 80.3009 10.9041 99.9847 3.98047C83.1774 8.36209 53.6767 25.7548 142.747 92.2819V92.2484Z" fill="#262626"/>
<path d="M144.653 69.4702C178.937 93.6193 199.474 109.774 195.209 129.927C195.41 129.241 195.627 128.555 195.811 127.886C196.497 125.378 197.183 122.551 197.735 120.294C200.678 100.208 179.94 84.8895 145.874 61.5933C123.364 46.1907 81.471 17.5262 99.9842 3.94653C70.9518 17.5429 126.424 56.6263 144.653 69.4702Z" fill="#262626"/>
<path d="M147.18 51.7104C185.812 76.7793 198.94 88.1515 199.643 105.41C199.659 105.076 199.693 104.725 199.709 104.39L199.826 100.176L199.726 96.0952C199.709 95.627 199.693 95.1754 199.659 94.7071C198.171 76.5953 174.038 61.661 143.518 42.7967C122.044 29.5347 97.7113 14.4833 100.002 3.96411C89.9514 14.6004 124.402 36.9433 147.197 51.7271L147.18 51.7104Z" fill="#262626"/>
<path d="M144.67 35.7058C180.258 55.908 193.654 65.7249 197.919 80.5254C197.383 77.9667 196.514 74.7223 195.795 71.9796C195.627 71.411 195.46 70.8591 195.293 70.2905C189.507 55.2391 170.124 44.4356 136.459 26.7418C112.661 14.2158 104.818 9.31571 99.9844 3.96411C102.761 11.9246 120.337 21.9087 144.67 35.7225V35.7058Z" fill="#262626"/>
<path d="M190.21 57.2284C190.059 56.9274 189.925 56.6264 189.775 56.3253L187.751 52.3283L186.397 49.9368C186.146 49.502 185.895 49.0672 185.627 48.6324C181.045 41.5081 172.75 36.2067 160.876 29.9854C141.259 19.717 120.221 12.8101 100.002 3.94653C106.307 7.96023 117.896 13.2784 132.563 20.0181C171.479 37.8958 183.47 45.6221 190.227 57.2284H190.21Z" fill="#262626"/>
<path d="M178.068 37.7787C177.884 37.5446 177.716 37.3439 177.516 37.093C177.399 36.9425 177.282 36.8087 177.148 36.6582C176.997 36.4742 176.847 36.2903 176.696 36.1063C175.225 34.4005 173.569 32.5441 172.248 31.0557C163.551 22.142 139.235 13.0275 99.9844 3.94653C159.521 21.7908 171.044 30.1527 178.068 37.7787Z" fill="#262626"/>
<path d="M161.745 21.5399C160.29 20.4194 158.701 19.2487 157.33 18.2453C157.046 18.0446 156.762 17.8607 156.477 17.66C147.028 11.7064 128.047 7.0906 99.9844 3.94653C117.444 6.53871 148.667 12.392 162.983 22.5433C162.565 22.1921 162.147 21.8577 161.745 21.5399Z" fill="#262626"/>
<path d="M122.127 3.93067C124.451 4.24842 126.759 4.66652 129 5.18495C132.997 5.8539 133.499 6.00445 136.542 6.99115C136.459 6.9577 136.359 6.90753 136.275 6.89081C134.753 6.28875 132.679 5.58633 131.124 5.03445H131.091C127.428 3.84706 123.13 3.69658 118.146 3.49589C118.381 3.51261 118.598 3.54602 118.832 3.56275C116.29 3.32862 113.698 3.19482 111.072 3.19482C107.042 3.39551 106.507 3.42899 99.9844 3.96415C110.353 3.52934 115.036 3.61294 122.127 3.94741V3.93067ZM120.203 3.69657C120.672 3.74674 121.123 3.79692 121.591 3.86382C121.14 3.79692 120.672 3.74674 120.203 3.69657Z" fill="#262626"/>
</svg>
