<svg width="60" height="60" viewBox="0 0 60 60" fill="none" xmlns="http://www.w3.org/2000/svg">
<rect x="1" y="1" width="58" height="58" rx="9" fill="#FFDECC"/>
<rect x="1" y="1" width="58" height="58" rx="9" stroke="#262626" stroke-width="2"/>
<path d="M29.25 22.5329C27.7345 21.5628 25.9325 21 24 21C22.8618 21 21.7676 21.1954 20.7501 21.555C20.4504 21.6609 20.25 21.9443 20.25 22.2621V36.5121C20.25 36.7556 20.3682 36.9839 20.567 37.1245C20.7657 37.265 21.0204 37.3004 21.2499 37.2192C22.1091 36.9156 23.0344 36.75 24 36.75C25.995 36.75 27.8232 37.4573 29.25 38.6357V22.5329Z" fill="#262626"/>
<path d="M30.75 38.6357C32.1768 37.4573 34.005 36.75 36 36.75C36.9656 36.75 37.8909 36.9156 38.7501 37.2192C38.9796 37.3004 39.2343 37.265 39.433 37.1245C39.6318 36.9839 39.75 36.7556 39.75 36.5121V22.2621C39.75 21.9443 39.5496 21.6609 39.2499 21.555C38.2324 21.1954 37.1382 21 36 21C34.0675 21 32.2655 21.5628 30.75 22.5329V38.6357Z" fill="#262626"/>
</svg>
