<svg width="66" height="66" viewBox="0 0 66 66" fill="none" xmlns="http://www.w3.org/2000/svg">
<rect x="0.5" y="0.5" width="65" height="65" rx="32.5" fill="#FFF5F0"/>
<rect x="0.5" y="0.5" width="65" height="65" rx="32.5" stroke="#333333"/>
<mask id="mask0_157_30107" style="mask-type:luminance" maskUnits="userSpaceOnUse" x="9" y="9" width="48" height="48">
<path d="M56.5316 9.5625H9.55908V56.535H56.5316V9.5625Z" fill="white"/>
</mask>
<g mask="url(#mask0_157_30107)">
<path d="M34.0074 15.2942C35.3495 15.3421 36.6915 15.5818 38.0336 16.0132C39.9097 16.5428 41.581 17.6292 42.8267 19.1287C43.7374 20.327 44.3126 21.7649 44.5043 23.2508C44.763 24.852 44.7953 26.4816 44.6002 28.0918L44.3605 29.7215L44.1688 30.6801C44.1209 30.776 44.1209 30.776 44.025 30.776C43.9291 30.5842 43.9291 30.3925 43.9291 30.2008C43.8812 29.4818 43.9771 28.8108 44.025 28.0918C44.0729 26.9415 44.1688 25.7911 44.0729 24.6408L43.7854 22.4839C43.4498 21.1418 42.8267 19.8956 41.8681 18.889C41.0053 18.0263 39.9509 17.3073 38.8484 16.828C37.794 16.3966 36.7395 16.109 35.6371 15.9173C34.7743 15.7735 33.9115 15.7256 33.0488 15.7256C30.9219 15.6908 28.8178 16.1675 26.9136 17.1156C26.2905 17.547 25.7153 18.0742 25.236 18.6494C23.7611 20.5854 22.849 22.8908 22.5998 25.3118C22.5519 26.4622 22.5998 27.5646 22.9833 28.667L23.3188 29.386L23.8939 29.4339L23.9419 29.5777C23.7981 29.6735 23.6064 29.6735 23.4146 29.7215C22.9353 29.8173 22.456 30.0091 22.0246 30.2966C21.6891 30.5363 21.3536 30.8239 21.1619 31.2073C20.9222 31.6867 21.0181 32.2618 21.1139 32.7891C21.3536 33.6998 21.9288 34.5625 22.6957 35.1377C23.2229 35.5691 23.8939 35.8087 24.565 35.9046C25.0443 36.0005 25.5236 35.9046 26.0029 35.8567C26.2426 36.0484 26.3864 36.4318 26.5302 36.6715L27.3929 37.9656C28.1727 39.0739 29.2784 39.9115 30.5564 40.3622C31.6109 40.7936 32.7133 41.0332 33.8157 41.2729L35.7809 41.6563L36.5957 41.896V42.0877H36.0205C34.9431 42.0276 33.8705 41.8995 32.8091 41.7042C31.3837 41.4206 30.0203 40.885 28.7829 40.1225C28.2557 39.787 27.7764 39.3556 27.3929 38.8284C27.7249 40.8262 27.4581 42.8775 26.626 44.7239C25.9071 46.018 24.7088 47.0246 23.2708 47.456C23.127 47.5039 22.9353 47.5518 22.7915 47.5039C22.6957 47.5039 22.6957 47.456 22.6957 47.3601C22.7436 47.2163 22.8874 47.1205 22.9833 47.0725C23.5584 46.6891 24.2295 46.4015 24.8046 45.9701C25.4277 45.4429 25.955 44.8677 26.2905 44.1487C26.5781 43.4298 26.7698 42.6149 26.8657 41.8001C26.9615 41.177 27.0095 40.5539 26.9615 39.8829L26.7698 38.0615L25.9071 36.336L24.9964 36.5277C24.2928 36.5482 23.5952 36.3922 22.9674 36.0741C22.3395 35.756 21.8012 35.2857 21.4015 34.7063C20.7767 33.9148 20.4388 32.9347 20.4429 31.9263C20.4429 31.4949 20.5867 31.0635 20.8264 30.728C21.066 30.3925 21.4015 30.1049 21.737 29.9132C21.9767 29.7215 22.3122 29.6256 22.5998 29.5298L22.1684 28.3794C21.9288 27.3249 21.9288 26.2225 22.0726 25.168C22.3864 22.5506 23.4332 20.075 25.0922 18.0263C25.5236 17.547 25.955 17.1156 26.4822 16.7801C26.8177 16.5884 27.1533 16.5404 27.4408 16.3487C29.5019 15.438 31.7546 15.1504 34.0074 15.2942Z" fill="#262626"/>
<path d="M33.0481 15.7243C35.0396 15.6502 37.0222 16.0271 38.8477 16.8267C39.9501 17.306 41.0046 18.025 41.8674 18.8877C42.826 19.8943 43.4491 21.1405 43.7846 22.4826L44.0722 24.6395C44.1681 25.7898 44.0722 26.9402 44.0243 28.0905C43.9764 28.8095 43.8805 29.4805 43.9284 30.1995C43.9284 30.3912 43.9284 30.5829 44.0243 30.7747L43.9764 31.7333C43.8805 31.9729 43.8805 32.2126 43.8805 32.5002C43.7846 33.6505 43.7846 34.8488 43.5929 36.0471C43.545 36.6223 43.4491 37.2454 43.2095 37.7726C43.0657 38.204 42.826 38.5874 42.4905 38.9229C41.9153 39.546 41.1964 40.0733 40.4295 40.5047C39.5188 41.0319 38.5601 41.2716 37.6494 41.655C37.4098 41.7509 37.1701 41.8467 37.0263 42.0385C37.4098 42.0864 37.7453 42.0385 38.1288 41.9426C37.8891 42.5178 37.8412 43.0929 37.8412 43.6681C37.8412 43.9078 37.7932 44.1954 37.8891 44.435C38.0329 44.6747 38.2726 44.8664 38.5122 45.0102L40.1898 45.6333C41.2443 46.0167 42.2508 46.4961 43.3053 46.9274C43.4012 47.1192 43.545 47.263 43.5929 47.5026C43.8805 48.0299 43.9284 48.605 43.7367 49.1802C43.497 49.8033 43.0177 50.3305 42.4426 50.6661C41.6757 51.1933 40.717 51.5768 39.8063 51.8164C36.0795 52.6127 32.2154 52.4976 28.5425 51.4809C27.5839 51.1454 26.6253 50.8099 25.7625 50.3305C25.0915 49.9471 24.3725 49.4678 23.8453 48.8447C23.5577 48.4612 23.3181 47.934 23.2701 47.4547C24.3925 47.1121 25.3858 46.4398 26.1209 45.5251C26.8561 44.6105 27.299 43.4958 27.3922 42.326C27.5839 41.1757 27.5839 39.9774 27.3922 38.8271C27.7756 39.3543 28.255 39.7857 28.7822 40.1212L30.0763 40.7923C31.9555 41.6029 33.9737 42.0424 36.0198 42.0864H36.595V41.8947L35.7801 41.655L33.815 41.2716C32.7125 41.0319 31.6101 40.7923 30.5556 40.3609C29.9325 40.0733 29.2615 39.7378 28.6863 39.3543C28.207 38.9229 27.7756 38.4916 27.3922 37.9643L26.5294 36.6702C26.3856 36.4305 26.2418 36.0471 26.0022 35.8554C25.5229 35.9033 25.0436 35.9991 24.5643 35.9033C23.8932 35.8074 23.2222 35.5678 22.6949 35.1364C21.929 34.5438 21.3744 33.7203 21.1132 32.7878C21.0174 32.2605 20.9215 31.6853 21.1612 31.206C21.3529 30.8226 21.6884 30.535 22.0239 30.2953C22.4553 30.0078 22.9346 29.816 23.4139 29.7202C23.6056 29.6722 23.7974 29.6722 23.9412 29.5764L23.8932 29.4326L23.3181 29.3847L22.9825 28.6657C22.5991 27.5633 22.5512 26.4609 22.647 25.3105C22.8821 22.8943 23.7776 20.5893 25.2353 18.6481C25.7146 18.0729 26.2898 17.5457 26.9129 17.1143C28.8129 16.1496 30.9172 15.6564 33.0481 15.6764V15.7243Z" fill="#FFDECC"/>
<path d="M22.7441 31.4505C22.9359 31.4505 23.0797 31.4505 23.2714 31.5464C23.511 31.5943 23.7986 31.7381 23.9424 31.9298C24.0383 32.0736 24.0383 32.2653 23.9424 32.4091C23.7028 32.6967 23.3672 32.8884 23.1755 33.176C23.4631 33.3678 23.8466 33.4636 24.1821 33.6074C24.3738 33.6553 24.5655 33.7512 24.7093 33.895L24.7572 34.0388L24.3738 33.9429L23.2235 33.6074C23.0317 33.5595 22.84 33.4636 22.7921 33.2719C22.7441 33.1281 22.84 32.9364 22.9359 32.7926L23.6548 32.1695C23.4631 31.834 22.9359 31.786 22.7441 31.4505ZM43.9776 31.7381L44.0735 31.8819L44.1693 32.6488C44.2688 34.0707 44.2367 35.4987 44.0735 36.9147C43.9776 37.4419 43.8338 38.0171 43.5942 38.4964C42.3225 40.1603 40.5361 41.3568 38.5135 41.8995C38.4655 42.5705 38.3697 43.3854 38.4176 44.1523L38.6573 44.3919C39.0407 44.6795 39.52 44.8233 39.9514 44.9671C41.0726 45.325 42.1626 45.7738 43.2107 46.3092C43.5462 46.5009 43.8338 46.7405 44.0735 47.0281C43.8338 47.0761 43.5942 46.9802 43.3066 46.9323C42.2521 46.5009 41.2455 46.0216 40.1911 45.6381L38.5135 45.015C38.2738 44.8712 38.0342 44.6795 37.8904 44.4398C37.7945 44.2002 37.8424 43.9126 37.8424 43.6729C37.8424 43.0978 37.8904 42.5226 38.13 41.9474C37.7466 42.0433 37.4111 42.0912 37.0276 42.0433C37.1714 41.8516 37.4111 41.7557 37.6507 41.6598C38.5614 41.2764 39.52 41.0367 40.4307 40.5095C41.1976 40.0781 41.9166 39.5509 42.4918 38.9278C42.8273 38.5922 43.0669 38.2088 43.2107 37.7774C43.4504 37.2502 43.5462 36.6271 43.5942 36.0519C43.7859 34.8536 43.7859 33.6553 43.8818 32.505C43.8818 32.2174 43.8818 31.9778 43.9776 31.7381Z" fill="#262626"/>
<path d="M43.4979 28.5208L43.402 28.8563C43.2582 29.096 43.1144 29.2877 42.8748 29.4315C42.6351 29.5753 42.3475 29.6232 42.06 29.6712L41.1972 29.767C40.9575 29.767 40.8137 29.9108 40.7179 30.0546L40.3824 30.3901C40.2865 30.4381 40.1427 30.3422 40.1906 30.2463C40.2386 29.8629 40.5262 29.5753 40.7179 29.2877C40.8617 29.1439 41.0534 28.9522 41.2931 28.9522L42.731 28.7126C42.9706 28.6646 43.2103 28.5208 43.4979 28.5208ZM28.8789 28.7126C29.4541 28.6646 29.8855 28.8563 30.4127 28.9043C31.1317 29.0001 31.8506 29.096 32.5696 29.096L33.7199 29.1919C34.1034 29.2398 34.5348 29.1919 34.8703 29.3836C35.2058 29.5753 35.4455 29.8629 35.6372 30.1505C35.6851 30.2463 35.7331 30.3422 35.6372 30.486C35.5893 30.5339 35.4934 30.486 35.4455 30.4381C35.2537 30.3422 35.1099 30.1505 34.9182 30.1026L34.3431 30.0546L33.001 30.0067L31.9465 29.9588C31.4672 29.9108 30.9879 29.9108 30.5086 29.7191C30.173 29.6232 29.9334 29.4315 29.5979 29.2877L29.0227 28.8563C28.9268 28.8084 28.8789 28.8084 28.8789 28.7126Z" fill="#262626"/>
<path d="M34.3902 22.9624C34.7257 22.9624 35.0612 23.0583 35.3009 23.25C35.4926 23.3458 35.6364 23.4417 35.6843 23.6334C35.7323 23.7293 35.6843 23.8731 35.5885 23.921C35.3488 23.9689 35.1092 23.8251 34.9174 23.7772L34.4861 23.7293C33.863 23.6814 33.2398 23.7772 32.6167 23.921C31.5679 24.2178 30.5898 24.7231 29.7409 25.4069C29.5492 25.5027 29.3095 25.6465 29.0698 25.5986C28.926 25.5986 28.926 25.4069 28.974 25.2631C29.0219 24.9755 29.3095 24.7358 29.5492 24.4962C30.0285 24.0648 30.6516 23.7772 31.2267 23.5376C32.1854 23.1062 33.3357 22.8665 34.3902 22.9624ZM41.8674 23.0583C42.203 22.9624 42.5385 23.0103 42.8261 23.202C43.0178 23.3458 43.2095 23.4896 43.2574 23.7293C43.3054 23.8731 43.3054 24.0169 43.1616 24.0648C43.0178 24.1127 42.8261 24.1127 42.6823 24.0169C42.4426 23.8731 42.2509 23.7293 41.9633 23.7293C41.7237 23.7293 41.484 23.7772 41.2923 23.8731C40.9088 24.0648 40.5254 24.4003 40.3336 24.7838L40.0461 25.2151H39.9023V24.9276C39.9981 24.5441 40.2378 24.1607 40.5254 23.8731C40.8609 23.4896 41.3402 23.1541 41.8674 23.0583Z" fill="#262626"/>
<path d="M20.6345 31.354C20.8742 31.354 21.1138 31.3061 21.3056 31.4499C21.4494 31.5458 21.5452 31.6895 21.4973 31.8813C21.4014 32.073 21.2097 32.2168 20.97 32.2168H20.2031C19.9635 32.1689 19.7718 32.073 19.6759 31.8813C19.628 31.6895 19.7718 31.5458 19.9156 31.4499C20.1552 31.354 20.3949 31.402 20.6345 31.354ZM21.2576 32.4564C21.4014 32.5044 21.5931 32.6002 21.5931 32.792C21.5931 32.9358 21.5452 33.0795 21.4014 33.1275C21.1618 33.3192 20.8742 33.3192 20.5866 33.4151C20.3469 33.463 20.1073 33.5109 19.9156 33.3671C19.7238 33.2233 19.7718 32.9358 19.9156 32.792C20.1073 32.6002 20.299 32.6002 20.5387 32.5523C20.7783 32.5044 21.018 32.4085 21.2576 32.4564ZM24.7087 34.9489H25.0921C25.2359 34.9968 25.3797 35.1406 25.3797 35.3323C25.3797 35.572 25.188 35.7637 24.9483 35.8116C24.7087 35.9075 24.5169 35.7158 24.4211 35.524C24.3732 35.2844 24.469 34.9968 24.7087 34.9489Z" fill="#262626"/>
<path d="M39.3754 33.1237C39.3754 33.2675 39.2796 33.4113 39.1837 33.5551C38.992 33.8427 38.6565 34.0344 38.321 34.1303C38.0813 34.1782 37.8896 34.0344 37.6979 34.1303C37.5061 34.1303 37.3144 34.1782 37.1227 34.0823C37.0268 34.0344 37.0268 33.8906 37.1227 33.7947C37.2665 33.603 37.5061 33.4592 37.6979 33.4592C37.8896 33.4113 38.0334 33.4113 38.1772 33.5551L38.2251 33.8906C38.4647 33.7947 38.5606 33.6509 38.7523 33.5072L39.3754 33.1237Z" fill="#262626"/>
<path d="M44.7431 32.1218C45.1745 32.1218 45.558 32.3135 45.7976 32.649C45.9096 32.7962 45.9911 32.9643 46.0374 33.1434C46.0836 33.3225 46.0936 33.509 46.0668 33.6921C46.04 33.8751 45.977 34.0509 45.8814 34.2093C45.7858 34.3676 45.6595 34.5053 45.51 34.6142C45.8935 34.7101 46.2769 34.9497 46.5645 35.2373C46.9959 35.7645 47.3314 36.4835 47.2835 37.2025C47.2355 37.5859 47.0917 37.9214 46.9 38.209C46.5166 38.8321 45.8935 39.2635 45.2224 39.5511L45.6059 39.9825C45.7497 40.318 45.7976 40.6535 45.7976 41.037C45.7497 41.6121 45.51 42.1873 45.0786 42.6187C44.5836 43.0921 43.9402 43.3799 43.2573 43.4335C42.778 43.4815 42.2507 43.4815 41.7714 43.3377C41.7235 43.6732 41.6276 44.0566 41.4838 44.3921C41.1609 44.9617 40.6472 45.399 40.0334 45.627C39.4197 45.855 38.7451 45.859 38.1286 45.6384C37.5535 45.3987 37.0742 44.9673 36.7866 44.488C36.0676 44.9194 35.3007 45.0632 34.4859 45.0632C33.8148 45.1111 33 45.0632 32.4248 44.7277C32.0414 44.5839 31.8017 44.2963 31.5621 44.0087C31.4183 43.8649 31.3224 43.7211 31.2745 43.4815C30.7472 43.9128 30.0283 44.0087 29.4052 43.9128C28.9259 43.769 28.4945 43.5294 28.2548 43.098C28.0152 42.8104 27.9672 42.379 27.9672 41.9956H27.2962C26.9128 41.9477 26.5293 41.7559 26.1938 41.5163C25.6666 41.037 25.2352 40.4139 24.9476 39.7428C24.8517 39.4552 24.7559 39.1677 24.7559 38.8321C24.7559 38.3049 24.9476 37.7777 25.2831 37.3463C25.1393 37.0108 25.0914 36.6752 25.1872 36.3397C25.331 35.7645 25.7624 35.2852 26.2417 34.9977C26.6731 34.7101 27.2003 34.6142 27.7276 34.6621C27.8234 34.3745 27.9672 34.1828 28.2069 33.9911C28.7341 33.5118 29.4052 33.2242 30.1241 33.2242C30.6035 33.2242 31.0348 33.2721 31.4183 33.4639C31.61 33.1763 31.8497 33.0325 32.1372 32.9366C32.6645 32.697 33.2397 32.7449 33.7669 32.9845C34.6776 33.3201 35.3966 33.8473 36.2593 34.1828C36.499 34.3745 36.8345 34.3266 37.17 34.3745C37.5055 34.4225 37.841 34.3745 38.1766 34.3266C38.3204 34.2787 38.5121 34.2787 38.6079 34.1828L39.5186 33.7035L40.4773 32.9845C40.8607 32.7449 41.34 32.5052 41.8193 32.5532C42.0111 32.6011 42.1548 32.697 42.2507 32.8408C42.9906 32.3566 43.859 32.1061 44.7431 32.1218Z" fill="#262626"/>
<path d="M33.1933 36.5735C33.3371 36.5256 33.433 36.5735 33.433 36.6694C33.433 36.8131 33.2892 36.9569 33.1454 37.0049C33.0016 36.8611 33.0496 36.6694 33.1933 36.5735ZM34.3916 37.1487L36.1171 37.4842L37.5551 37.58C37.8906 37.628 38.1782 37.58 38.4658 37.6759C38.4178 37.7718 38.322 37.8197 38.1782 37.8676C36.9898 38.0548 35.774 37.9563 34.6313 37.58C34.4875 37.5321 34.2958 37.4363 34.2478 37.2925C34.1999 37.1966 34.2958 37.1007 34.3916 37.1487Z" fill="#FFDECC"/>
<path d="M32.9533 14.6719C34.3067 14.6746 35.6562 14.8192 36.9795 15.1033C37.5067 15.2471 37.986 15.343 38.4653 15.5347L40.1429 16.1578C40.6222 16.3016 41.0536 16.5892 41.5329 16.7809L42.2998 17.0685L43.6898 17.3561C43.9295 17.4519 44.1212 17.5957 44.2171 17.8354C44.3609 18.123 44.3129 18.4106 44.2171 18.6981L44.6964 18.9378C44.936 19.1775 45.0319 19.513 44.936 19.8485C44.8402 20.0402 44.6484 20.184 44.4567 20.2799C43.4368 20.8029 42.262 20.9391 41.1495 20.6633L39.0405 20.184L36.0688 19.3692C33.5282 18.5 30.7629 18.5509 28.256 19.513L28.0643 20.184C27.8726 20.9509 27.7288 21.7178 27.6808 22.4847V23.2995L27.6329 23.683C27.4891 24.0185 27.2015 24.354 27.0098 24.6895C26.4346 25.5523 25.9074 26.463 25.476 27.3737L25.3801 28.0447V29.914C25.3801 30.1537 25.476 30.3454 25.3322 30.5371C24.6133 30.4413 23.8943 30.2495 23.1274 30.0578C23.0315 30.0578 22.8877 30.0578 22.7919 29.9619L22.4564 29.5306C22.2646 29.3868 22.2167 29.0992 22.1208 28.8595C21.7853 27.853 21.6895 26.7026 21.6895 25.6002C21.6895 24.2581 21.9291 22.964 22.1688 21.6699C22.3605 20.9509 22.6481 20.2799 22.9836 19.6568C23.4629 18.6981 24.1339 17.8833 24.9008 17.1643C25.6677 16.3974 26.5784 15.8702 27.585 15.4868C29.3058 14.8744 31.1282 14.5978 32.9533 14.6719ZM24.086 30.5371C24.5653 30.5371 25.0446 30.6809 25.476 30.7768C25.6677 30.8247 25.9074 30.9206 26.0512 31.0644C26.195 31.1602 26.147 31.3519 26.0033 31.3999C25.5719 31.5437 25.2364 31.3999 24.8529 31.304C24.5653 31.2082 24.1819 31.1123 23.8943 30.9206C23.7984 30.8726 23.6546 30.7288 23.7505 30.633C23.8464 30.5371 23.9901 30.5371 24.086 30.5371ZM45.0319 36.1451C45.0798 36.2409 45.0798 36.2889 44.984 36.3847L45.0319 36.1451Z" fill="#262626"/>
</g>
</svg>
