<svg width="60" height="60" viewBox="0 0 60 60" fill="none" xmlns="http://www.w3.org/2000/svg">
<rect x="1" y="1" width="58" height="58" rx="9" fill="#FFDECC"/>
<rect x="1" y="1" width="58" height="58" rx="9" stroke="#262626" stroke-width="2"/>
<path fill-rule="evenodd" clip-rule="evenodd" d="M28.5005 21.7976V26.818C28.5005 27.6137 28.1844 28.3767 27.6218 28.9393L25.2448 31.3164C26.9921 31.192 28.7583 31.5404 30.3359 32.3292C32.0993 33.2109 34.14 33.442 36.0485 32.9649L36.3335 32.8937L32.3792 28.9393C31.8166 28.3767 31.5005 27.6137 31.5005 26.818V21.7976C31.0047 21.766 30.5045 21.75 30.0005 21.75C29.4965 21.75 28.9964 21.766 28.5005 21.7976ZM33.0005 21.9358C33.3737 21.9362 33.6974 21.6583 33.7447 21.2785C33.796 20.8675 33.5043 20.4927 33.0933 20.4414C32.8367 20.4094 32.5789 20.3814 32.3199 20.3573C31.5561 20.2863 30.7825 20.25 30.0005 20.25C29.2186 20.25 28.4449 20.2863 27.6811 20.3573C27.4221 20.3814 27.1643 20.4094 26.9077 20.4414C26.4967 20.4927 26.205 20.8675 26.2563 21.2785C26.3036 21.6583 26.6273 21.9362 27.0005 21.9358V26.818C27.0005 27.2158 26.8425 27.5974 26.5612 27.8787L20.268 34.1719C18.6468 35.793 19.365 38.6474 21.7389 39.0527C24.4247 39.5112 27.185 39.75 30.0005 39.75C32.816 39.75 35.5763 39.5112 38.2621 39.0527C40.636 38.6474 41.3542 35.793 39.733 34.1719L33.4398 27.8787C33.1585 27.5974 33.0005 27.2158 33.0005 26.818V21.9358Z" fill="#262626"/>
</svg>
