<svg width="36" height="36" viewBox="0 0 36 36" fill="none" xmlns="http://www.w3.org/2000/svg">
<rect x="1" y="1" width="34" height="34" rx="5" fill="#FFF5F0"/>
<rect x="1" y="1" width="34" height="34" rx="5" stroke="#262626" stroke-width="2"/>
<path fill-rule="evenodd" clip-rule="evenodd" d="M17.6165 26.6259C17.6416 26.6405 17.6614 26.6517 17.6754 26.6596L17.6987 26.6726C17.8844 26.7745 18.1148 26.7738 18.3007 26.6729L18.3246 26.6596C18.3386 26.6517 18.3584 26.6405 18.3835 26.6259C18.4339 26.5967 18.5058 26.5542 18.5963 26.4985C18.7771 26.3872 19.0323 26.223 19.3372 26.0076C19.9459 25.5776 20.7581 24.9395 21.5721 24.1061C23.1922 22.4474 24.875 19.9551 24.875 16.75C24.875 12.953 21.797 9.875 18 9.875C14.203 9.875 11.125 12.953 11.125 16.75C11.125 19.9551 12.8078 22.4474 14.4279 24.1061C15.2419 24.9395 16.0541 25.5776 16.6628 26.0076C16.9677 26.223 17.2229 26.3872 17.4037 26.4985C17.4942 26.5542 17.5661 26.5967 17.6165 26.6259ZM18 19.25C19.3807 19.25 20.5 18.1307 20.5 16.75C20.5 15.3693 19.3807 14.25 18 14.25C16.6193 14.25 15.5 15.3693 15.5 16.75C15.5 18.1307 16.6193 19.25 18 19.25Z" fill="#262626"/>
</svg>
