<svg width="138" height="30" viewBox="0 0 138 30" fill="none" xmlns="http://www.w3.org/2000/svg">
<path d="M8.90674 15L15.1567 8.75L21.4067 15L15.1567 21.25L8.90674 15Z" fill="#1A1A1A"/>
<path d="M27.6567 7.5V15L15.1567 2.5H22.6567L27.6567 7.5Z" fill="#1A1A1A"/>
<path d="M27.6567 22.5V15L15.1567 27.5H22.6567L27.6567 22.5Z" fill="#1A1A1A"/>
<path d="M2.65674 22.5V15L15.1567 27.5H7.65674L2.65674 22.5Z" fill="#1A1A1A"/>
<path d="M2.65674 7.5V15L15.1567 2.5H7.65674L2.65674 7.5Z" fill="#1A1A1A"/>
<path d="M35.1417 20.625V9.25005H37.0105V20.625H35.1417ZM36.4255 20.625V18.9188H42.373V20.625H36.4255Z" fill="#262626"/>
<path d="M43.8486 20.625V12.825H45.6361V20.625H43.8486ZM44.7423 11.395C44.439 11.395 44.1844 11.2921 43.9786 11.0863C43.7836 10.8805 43.6861 10.6259 43.6861 10.3225C43.6861 10.0192 43.7836 9.76463 43.9786 9.5588C44.1844 9.35297 44.439 9.25005 44.7423 9.25005C45.0565 9.25005 45.3111 9.35297 45.5061 9.5588C45.7011 9.76463 45.7986 10.0192 45.7986 10.3225C45.7986 10.6259 45.7011 10.8805 45.5061 11.0863C45.3111 11.2921 45.0565 11.395 44.7423 11.395Z" fill="#262626"/>
<path d="M48.8271 20.625V9.57505H50.6146V20.625H48.8271ZM46.9584 14.45V12.825H57.1959V14.45H46.9584ZM53.5396 20.625V9.57505H55.3271V20.625H53.5396Z" fill="#262626"/>
<path d="M58.4954 20.625V8.92505H60.2829V20.625H58.4954Z" fill="#262626"/>
<path d="M65.896 20.7875C65.116 20.7875 64.4118 20.6142 63.7835 20.2675C63.166 19.91 62.6731 19.4225 62.3047 18.805C61.9472 18.1875 61.7685 17.4942 61.7685 16.725C61.7685 15.9559 61.9472 15.268 62.3047 14.6613C62.6622 14.0438 63.1443 13.5563 63.751 13.1988C64.3685 12.8413 65.051 12.6625 65.7985 12.6625C66.5243 12.6625 67.1635 12.8305 67.716 13.1663C68.2793 13.5021 68.7181 13.9625 69.0322 14.5475C69.3572 15.1325 69.5197 15.7988 69.5197 16.5463C69.5197 16.6763 69.5089 16.8117 69.4872 16.9525C69.4764 17.0825 69.4547 17.2288 69.4222 17.3913H63.0197V15.9288H68.496L67.8297 16.5138C67.8081 16.0371 67.716 15.6363 67.5535 15.3113C67.391 14.9863 67.1581 14.7371 66.8547 14.5638C66.5622 14.3905 66.1993 14.3038 65.766 14.3038C65.311 14.3038 64.9156 14.4013 64.5797 14.5963C64.2439 14.7913 63.9839 15.0675 63.7997 15.425C63.6156 15.7717 63.5235 16.1888 63.5235 16.6763C63.5235 17.1638 63.621 17.5917 63.816 17.96C64.011 18.3284 64.2872 18.6155 64.6447 18.8213C65.0022 19.0163 65.4139 19.1138 65.8797 19.1138C66.2806 19.1138 66.6489 19.0434 66.9847 18.9025C67.3314 18.7617 67.6239 18.5559 67.8622 18.285L68.9997 19.4388C68.6206 19.883 68.1602 20.2188 67.6185 20.4463C67.0768 20.6738 66.5027 20.7875 65.896 20.7875Z" fill="#262626"/>
<path d="M74.4496 20.625V9.25005H76.3183V20.625H74.4496ZM75.7333 20.625V18.9188H81.6808V20.625H75.7333Z" fill="#262626"/>
<path d="M86.4941 20.7875C85.7141 20.7875 85.01 20.6142 84.3816 20.2675C83.7641 19.91 83.2712 19.4225 82.9029 18.805C82.5454 18.1875 82.3666 17.4942 82.3666 16.725C82.3666 15.9559 82.5454 15.268 82.9029 14.6613C83.2604 14.0438 83.7425 13.5563 84.3491 13.1988C84.9666 12.8413 85.6491 12.6625 86.3966 12.6625C87.1225 12.6625 87.7616 12.8305 88.3141 13.1663C88.8775 13.5021 89.3162 13.9625 89.6304 14.5475C89.9554 15.1325 90.1179 15.7988 90.1179 16.5463C90.1179 16.6763 90.1071 16.8117 90.0854 16.9525C90.0746 17.0825 90.0529 17.2288 90.0204 17.3913H83.6179V15.9288H89.0941L88.4279 16.5138C88.4062 16.0371 88.3141 15.6363 88.1516 15.3113C87.9891 14.9863 87.7562 14.7371 87.4529 14.5638C87.1604 14.3905 86.7975 14.3038 86.3641 14.3038C85.9091 14.3038 85.5137 14.4013 85.1779 14.5963C84.8421 14.7913 84.5821 15.0675 84.3979 15.425C84.2137 15.7717 84.1216 16.1888 84.1216 16.6763C84.1216 17.1638 84.2191 17.5917 84.4141 17.96C84.6091 18.3284 84.8854 18.6155 85.2429 18.8213C85.6004 19.0163 86.0121 19.1138 86.4779 19.1138C86.8787 19.1138 87.2471 19.0434 87.5829 18.9025C87.9296 18.7617 88.2221 18.5559 88.4604 18.285L89.5979 19.4388C89.2187 19.883 88.7583 20.2188 88.2166 20.4463C87.675 20.6738 87.1008 20.7875 86.4941 20.7875Z" fill="#262626"/>
<path d="M94.8171 20.7875C94.1129 20.7875 93.4737 20.6088 92.8996 20.2513C92.3362 19.8938 91.8866 19.4117 91.5508 18.805C91.2258 18.1875 91.0633 17.4996 91.0633 16.7413C91.0633 15.9721 91.2258 15.2842 91.5508 14.6775C91.8866 14.06 92.3362 13.5725 92.8996 13.215C93.4737 12.8467 94.1129 12.6625 94.8171 12.6625C95.4129 12.6625 95.9383 12.7925 96.3933 13.0525C96.8591 13.3017 97.2275 13.6484 97.4983 14.0925C97.7691 14.5367 97.9046 15.0405 97.9046 15.6038V17.8463C97.9046 18.4096 97.7691 18.9134 97.4983 19.3575C97.2383 19.8017 96.8754 20.1538 96.4096 20.4138C95.9437 20.663 95.4129 20.7875 94.8171 20.7875ZM95.1096 19.0975C95.7704 19.0975 96.3012 18.8755 96.7021 18.4313C97.1137 17.9871 97.3196 17.4184 97.3196 16.725C97.3196 16.2592 97.2275 15.8475 97.0433 15.49C96.8591 15.1325 96.5991 14.8563 96.2633 14.6613C95.9383 14.4555 95.5537 14.3525 95.1096 14.3525C94.6762 14.3525 94.2916 14.4555 93.9558 14.6613C93.6308 14.8563 93.3708 15.1325 93.1758 15.49C92.9916 15.8475 92.8996 16.2592 92.8996 16.725C92.8996 17.1909 92.9916 17.6025 93.1758 17.96C93.3708 18.3175 93.6308 18.5992 93.9558 18.805C94.2916 19 94.6762 19.0975 95.1096 19.0975ZM97.2058 20.625V18.5288L97.5146 16.6275L97.2058 14.7425V12.825H98.9933V20.625H97.2058Z" fill="#262626"/>
<path d="M100.977 20.625V12.825H102.765V20.625H100.977ZM102.765 16.2863L102.147 15.9775C102.147 14.9917 102.364 14.1955 102.797 13.5888C103.241 12.9713 103.908 12.6625 104.796 12.6625C105.186 12.6625 105.538 12.733 105.852 12.8738C106.166 13.0146 106.459 13.2421 106.73 13.5563L105.56 14.7588C105.419 14.6071 105.262 14.4988 105.088 14.4338C104.915 14.3688 104.715 14.3363 104.487 14.3363C103.989 14.3363 103.577 14.4934 103.252 14.8075C102.927 15.1217 102.765 15.6146 102.765 16.2863Z" fill="#262626"/>
<path d="M112.941 20.625V16.1238C112.941 15.6038 112.773 15.1759 112.437 14.84C112.112 14.5042 111.69 14.3363 111.17 14.3363C110.823 14.3363 110.514 14.4121 110.243 14.5638C109.972 14.7155 109.761 14.9267 109.61 15.1975C109.458 15.4684 109.382 15.7771 109.382 16.1238L108.683 15.7338C108.683 15.138 108.813 14.6125 109.073 14.1575C109.333 13.6917 109.691 13.3288 110.146 13.0688C110.612 12.798 111.132 12.6625 111.706 12.6625C112.291 12.6625 112.811 12.8142 113.266 13.1175C113.721 13.41 114.078 13.7946 114.338 14.2713C114.598 14.7371 114.728 15.2246 114.728 15.7338V20.625H112.941ZM107.595 20.625V12.825H109.382V20.625H107.595Z" fill="#262626"/>
<path d="M120.168 20.7875C119.388 20.7875 118.684 20.6142 118.056 20.2675C117.438 19.91 116.946 19.4225 116.577 18.805C116.22 18.1875 116.041 17.4942 116.041 16.725C116.041 15.9559 116.22 15.268 116.577 14.6613C116.935 14.0438 117.417 13.5563 118.023 13.1988C118.641 12.8413 119.323 12.6625 120.071 12.6625C120.797 12.6625 121.436 12.8305 121.988 13.1663C122.552 13.5021 122.991 13.9625 123.305 14.5475C123.63 15.1325 123.792 15.7988 123.792 16.5463C123.792 16.6763 123.781 16.8117 123.76 16.9525C123.749 17.0825 123.727 17.2288 123.695 17.3913H117.292V15.9288H122.768L122.102 16.5138C122.081 16.0371 121.988 15.6363 121.826 15.3113C121.663 14.9863 121.431 14.7371 121.127 14.5638C120.835 14.3905 120.472 14.3038 120.038 14.3038C119.583 14.3038 119.188 14.4013 118.852 14.5963C118.516 14.7913 118.256 15.0675 118.072 15.425C117.888 15.7717 117.796 16.1888 117.796 16.6763C117.796 17.1638 117.893 17.5917 118.088 17.96C118.283 18.3284 118.56 18.6155 118.917 18.8213C119.275 19.0163 119.686 19.1138 120.152 19.1138C120.553 19.1138 120.921 19.0434 121.257 18.9025C121.604 18.7617 121.896 18.5559 122.135 18.285L123.272 19.4388C122.893 19.883 122.433 20.2188 121.891 20.4463C121.349 20.6738 120.775 20.7875 120.168 20.7875Z" fill="#262626"/>
<path d="M125.225 20.625V12.825H127.013V20.625H125.225ZM127.013 16.2863L126.395 15.9775C126.395 14.9917 126.612 14.1955 127.045 13.5888C127.489 12.9713 128.156 12.6625 129.044 12.6625C129.434 12.6625 129.786 12.733 130.1 12.8738C130.414 13.0146 130.707 13.2421 130.978 13.5563L129.808 14.7588C129.667 14.6071 129.51 14.4988 129.336 14.4338C129.163 14.3688 128.963 14.3363 128.735 14.3363C128.237 14.3363 127.825 14.4934 127.5 14.8075C127.175 15.1217 127.013 15.6146 127.013 16.2863Z" fill="#262626"/>
<path d="M134.219 20.7875C133.786 20.7875 133.369 20.7334 132.968 20.625C132.567 20.5059 132.199 20.3434 131.863 20.1375C131.527 19.9209 131.235 19.6609 130.986 19.3575L132.123 18.22C132.394 18.5342 132.703 18.7725 133.049 18.935C133.407 19.0867 133.808 19.1625 134.252 19.1625C134.653 19.1625 134.956 19.103 135.162 18.9838C135.368 18.8646 135.471 18.6913 135.471 18.4638C135.471 18.2255 135.373 18.0413 135.178 17.9113C134.983 17.7813 134.728 17.673 134.414 17.5863C134.111 17.4888 133.786 17.3913 133.439 17.2938C133.103 17.1963 132.778 17.0663 132.464 16.9038C132.161 16.7305 131.912 16.4975 131.717 16.205C131.522 15.9125 131.424 15.5334 131.424 15.0675C131.424 14.5692 131.538 14.1413 131.766 13.7838C132.004 13.4263 132.334 13.15 132.757 12.955C133.19 12.76 133.705 12.6625 134.301 12.6625C134.929 12.6625 135.481 12.7763 135.958 13.0038C136.446 13.2205 136.852 13.5509 137.177 13.995L136.039 15.1325C135.812 14.8509 135.552 14.6396 135.259 14.4988C134.967 14.358 134.631 14.2875 134.252 14.2875C133.894 14.2875 133.618 14.3417 133.423 14.45C133.228 14.5584 133.131 14.7155 133.131 14.9213C133.131 15.138 133.228 15.3059 133.423 15.425C133.618 15.5442 133.867 15.6471 134.171 15.7338C134.485 15.8205 134.81 15.918 135.146 16.0263C135.492 16.1238 135.817 16.2646 136.121 16.4488C136.435 16.6221 136.689 16.8605 136.884 17.1638C137.079 17.4563 137.177 17.8409 137.177 18.3175C137.177 19.0759 136.911 19.6771 136.381 20.1213C135.85 20.5655 135.129 20.7875 134.219 20.7875Z" fill="#262626"/>
</svg>
