<svg width="60" height="60" viewBox="0 0 60 60" fill="none" xmlns="http://www.w3.org/2000/svg">
<rect x="1" y="1" width="58" height="58" rx="9" fill="#FFDECC"/>
<rect x="1" y="1" width="58" height="58" rx="9" stroke="#262626" stroke-width="2"/>
<path fill-rule="evenodd" clip-rule="evenodd" d="M38.5991 19.5C38.2237 19.5 37.8567 19.6111 37.5444 19.8193L32.4654 23.2053C31.1858 24.0584 30.0208 25.0624 28.9935 26.1922C31.1069 27.1839 32.8165 28.8935 33.8083 31.007C34.938 29.9797 35.9421 28.8146 36.7951 27.5351L40.1811 22.4561C40.3893 22.1438 40.5004 21.7768 40.5004 21.4014C40.5004 20.3513 39.6492 19.5 38.5991 19.5ZM30.3 33.5249C30.9573 33.1597 31.5902 32.7563 32.1959 32.3175C31.3841 30.258 29.7424 28.6164 27.683 27.8046C27.2441 28.4102 26.8407 29.0432 26.4755 29.7005L26.197 30.2018C27.9335 30.6985 29.302 32.0669 29.7986 33.8034L30.3 33.5249ZM24.7504 31.5C22.6794 31.5 21.0004 33.1789 21.0004 35.25C21.0004 36.0784 20.3289 36.75 19.5004 36.75C19.4665 36.75 19.4327 36.7489 19.3991 36.7466C19.1229 36.7284 18.8592 36.8637 18.7129 37.0986C18.5666 37.3336 18.5617 37.63 18.6999 37.8697C19.6057 39.4402 21.3039 40.5 23.2504 40.5C26.1499 40.5 28.5004 38.1495 28.5004 35.25C28.5004 33.1789 26.8215 31.5 24.7504 31.5Z" fill="#262626"/>
</svg>
