<svg width="60" height="60" viewBox="0 0 60 60" fill="none" xmlns="http://www.w3.org/2000/svg">
<rect x="1" y="1" width="58" height="58" rx="9" fill="#FFDECC"/>
<rect x="1" y="1" width="58" height="58" rx="9" stroke="#262626" stroke-width="2"/>
<path fill-rule="evenodd" clip-rule="evenodd" d="M20.25 31.5C20.25 26.9437 23.9437 23.25 28.5 23.25C28.9142 23.25 29.25 23.5858 29.25 24V30.75H36C36.4142 30.75 36.75 31.0858 36.75 31.5C36.75 36.0563 33.0563 39.75 28.5 39.75C23.9437 39.75 20.25 36.0563 20.25 31.5Z" fill="#262626"/>
<path fill-rule="evenodd" clip-rule="evenodd" d="M30.75 21C30.75 20.5858 31.0858 20.25 31.5 20.25C36.0563 20.25 39.75 23.9437 39.75 28.5C39.75 28.9142 39.4142 29.25 39 29.25H31.5C31.0858 29.25 30.75 28.9142 30.75 28.5V21Z" fill="#262626"/>
</svg>
