<svg width="61" height="60" viewBox="0 0 61 60" fill="none" xmlns="http://www.w3.org/2000/svg">
<rect x="1.66602" y="1" width="58" height="58" rx="9" fill="#FFDECC"/>
<rect x="1.66602" y="1" width="58" height="58" rx="9" stroke="#262626" stroke-width="2"/>
<path fill-rule="evenodd" clip-rule="evenodd" d="M29.4534 21.2107C29.9017 20.1327 31.4287 20.1327 31.8771 21.2107L33.9591 26.2164L39.3632 26.6496C40.5269 26.7429 40.9988 28.1952 40.1121 28.9547L35.9948 32.4817L37.2527 37.7551C37.5236 38.8908 36.2882 39.7883 35.2919 39.1798L30.6652 36.3538L26.0386 39.1798C25.0423 39.7883 23.8069 38.8908 24.0777 37.7551L25.3357 32.4817L21.2183 28.9547C20.3317 28.1952 20.8035 26.7429 21.9673 26.6496L27.3714 26.2164L29.4534 21.2107Z" fill="#262626"/>
</svg>
