<svg width="61" height="60" viewBox="0 0 61 60" fill="none" xmlns="http://www.w3.org/2000/svg">
<rect x="1.33398" y="1" width="58" height="58" rx="9" fill="#FFDECC"/>
<rect x="1.33398" y="1" width="58" height="58" rx="9" stroke="#262626" stroke-width="2"/>
<path d="M30.334 20.25C30.7482 20.25 31.084 20.5858 31.084 21V23.25C31.084 23.6642 30.7482 24 30.334 24C29.9198 24 29.584 23.6642 29.584 23.25V21C29.584 20.5858 29.9198 20.25 30.334 20.25Z" fill="#262626"/>
<path d="M25.834 30C25.834 27.5147 27.8487 25.5 30.334 25.5C32.8193 25.5 34.834 27.5147 34.834 30C34.834 32.4853 32.8193 34.5 30.334 34.5C27.8487 34.5 25.834 32.4853 25.834 30Z" fill="#262626"/>
<path d="M37.2283 24.1663C37.5212 23.8734 37.5212 23.3986 37.2283 23.1057C36.9354 22.8128 36.4606 22.8128 36.1677 23.1057L34.5767 24.6967C34.2838 24.9896 34.2838 25.4644 34.5767 25.7573C34.8696 26.0502 35.3444 26.0502 35.6373 25.7573L37.2283 24.1663Z" fill="#262626"/>
<path d="M40.084 30C40.084 30.4142 39.7482 30.75 39.334 30.75H37.084C36.6698 30.75 36.334 30.4142 36.334 30C36.334 29.5858 36.6698 29.25 37.084 29.25H39.334C39.7482 29.25 40.084 29.5858 40.084 30Z" fill="#262626"/>
<path d="M36.1676 36.8943C36.4604 37.1871 36.9353 37.1871 37.2282 36.8943C37.5211 36.6014 37.5211 36.1265 37.2282 35.8336L35.6372 34.2426C35.3443 33.9497 34.8695 33.9497 34.5766 34.2426C34.2837 34.5355 34.2837 35.0104 34.5766 35.3033L36.1676 36.8943Z" fill="#262626"/>
<path d="M30.334 36C30.7482 36 31.084 36.3358 31.084 36.75V39C31.084 39.4142 30.7482 39.75 30.334 39.75C29.9198 39.75 29.584 39.4142 29.584 39V36.75C29.584 36.3358 29.9198 36 30.334 36Z" fill="#262626"/>
<path d="M26.0915 35.3033C26.3844 35.0104 26.3844 34.5355 26.0915 34.2426C25.7986 33.9497 25.3237 33.9497 25.0308 34.2426L23.4398 35.8336C23.1469 36.1265 23.1469 36.6014 23.4398 36.8943C23.7327 37.1872 24.2076 37.1872 24.5005 36.8943L26.0915 35.3033Z" fill="#262626"/>
<path d="M24.334 30C24.334 30.4142 23.9982 30.75 23.584 30.75H21.334C20.9198 30.75 20.584 30.4142 20.584 30C20.584 29.5858 20.9198 29.25 21.334 29.25H23.584C23.9982 29.25 24.334 29.5858 24.334 30Z" fill="#262626"/>
<path d="M25.0307 25.7573C25.3236 26.0502 25.7985 26.0502 26.0914 25.7573C26.3843 25.4644 26.3843 24.9896 26.0914 24.6967L24.5004 23.1057C24.2075 22.8128 23.7326 22.8128 23.4397 23.1057C23.1468 23.3986 23.1468 23.8734 23.4397 24.1663L25.0307 25.7573Z" fill="#262626"/>
</svg>
