<svg width="60" height="60" viewBox="0 0 60 60" fill="none" xmlns="http://www.w3.org/2000/svg">
<rect x="1" y="1" width="58" height="58" rx="9" fill="#FFDECC"/>
<rect x="1" y="1" width="58" height="58" rx="9" stroke="#262626" stroke-width="2"/>
<path fill-rule="evenodd" clip-rule="evenodd" d="M32.6152 19.595C32.9165 19.7629 33.0643 20.1146 32.9736 20.4474L30.982 27.75H38.25C38.5487 27.75 38.8189 27.9272 38.9379 28.2011C39.0569 28.475 39.0021 28.7934 38.7983 29.0118L28.2983 40.2618C28.063 40.5139 27.686 40.573 27.3848 40.4051C27.0836 40.2372 26.9357 39.8854 27.0264 39.5527L29.0181 32.25H21.75C21.4514 32.25 21.1812 32.0728 21.0622 31.7989C20.9431 31.525 20.998 31.2066 21.2017 30.9883L31.7017 19.7383C31.937 19.4862 32.314 19.427 32.6152 19.595Z" fill="#262626"/>
</svg>
