<svg width="81" height="60" viewBox="0 0 81 60" fill="none" xmlns="http://www.w3.org/2000/svg">
<g clip-path="url(#clip0_164_31915)">
<path d="M73.3778 20.9666C71.0694 20.1899 68.8264 19.1842 66.4798 18.6936C60.5384 17.4536 54.8613 18.4484 49.8548 21.8878C47.9606 23.1906 46.5652 25.2401 45.0035 27.0034C43.6572 28.5242 42.398 30.124 40.989 31.8247C39.52 30.0859 38.1873 28.3825 36.7183 26.8018C34.9358 24.8858 33.3251 22.5992 31.1421 21.3128C24.4348 17.3527 17.376 17.3091 10.2926 20.5224C9.81024 20.7404 9.33875 20.983 8.5293 21.3782C9.40961 19.5413 10.14 18.0123 10.8759 16.4833C11.4646 15.2569 12.1895 14.0795 12.6201 12.8013C13.8738 9.09746 16.9318 7.56033 20.2895 6.88442C24.6201 6.01502 28.9154 6.51377 32.5756 9.3591C33.1834 9.8306 33.6494 10.6782 33.8538 11.4386C34.2763 13.0003 34.478 14.6246 34.835 16.5624C35.8052 16.3089 36.7264 16.2053 37.5223 15.832C39.9479 14.6982 42.3054 14.6192 44.6901 15.9219C45.1425 16.1699 45.6876 16.2789 46.2027 16.3716C47.0885 16.5324 47.5 16.1808 47.5654 15.216C47.6499 13.9542 47.8134 12.6759 48.1432 11.4604C48.3422 10.7245 48.7782 9.93144 49.3451 9.43269C52.8309 6.35842 57.0062 6.29028 61.2933 6.90078C62.1382 7.02069 62.9695 7.29051 63.7844 7.56305C66.1418 8.35342 68.0033 9.62892 69.039 12.0818C70.1455 14.7064 71.5627 17.1974 72.8382 19.7511C73.0508 20.1763 73.2252 20.6178 73.3805 20.9694L73.3778 20.9666Z" fill="#262626"/>
<path d="M39.1298 41.0202C39.0835 51.6167 30.6265 60.0246 20.041 59.9973C9.4882 59.9701 0.95765 51.4477 0.965826 40.9439C0.974002 30.4211 9.72531 21.7243 20.1827 21.8415C30.7628 21.9587 39.1734 30.4756 39.1298 41.0202ZM20.0683 53.4454C27.1162 53.4454 32.8096 47.7629 32.7987 40.7368C32.7878 33.6725 27.1271 28.0391 20.0465 28.0445C13.0994 28.05 7.43596 33.7216 7.3978 40.7095C7.35965 47.7793 12.9958 53.4427 20.0655 53.4454H20.0683Z" fill="#FF9E66"/>
<path d="M42.8389 40.9357C42.8443 30.3911 51.3503 21.8578 61.8704 21.8415C72.3388 21.8251 80.9429 30.3938 81.0001 40.8948C81.0601 51.4313 72.4369 60.03 61.8432 60.0027C51.2495 59.9727 42.8334 51.5294 42.8389 40.9384V40.9357ZM74.5681 40.7667C74.5681 33.648 68.9729 28.039 61.8786 28.0472C54.8798 28.0527 49.1482 33.8115 49.1673 40.8185C49.1864 47.7765 54.8634 53.4372 61.8405 53.4481C68.9293 53.4617 74.5654 47.8419 74.5654 40.7667H74.5681Z" fill="#FF9E66"/>
<path d="M63.3673 3.52401C58.6714 2.34118 54.2889 2.6328 50.0264 4.63053C50.4297 2.66278 52.6373 0.746813 54.9485 0.278042C58.3007 -0.403312 61.4949 0.763165 63.3673 3.52674V3.52401Z" fill="#262626"/>
<path d="M18.7705 3.107C20.3703 1.05748 22.5343 -0.138972 25.2461 0.0136514C28.2577 0.182627 30.5525 1.6489 32.0133 4.32253C29.8221 3.84831 27.6826 3.17241 25.4996 2.97618C23.2811 2.7745 21.0217 3.04431 18.7705 3.107Z" fill="#262626"/>
</g>
<defs>
<clipPath id="clip0_164_31915">
<rect width="80.0345" height="60" fill="white" transform="translate(0.96582)"/>
</clipPath>
</defs>
</svg>
