<svg width="201" height="200" viewBox="0 0 201 200" fill="none" xmlns="http://www.w3.org/2000/svg">
<rect x="50.9132" y="150" width="50" height="50" transform="rotate(90 50.9132 150)" fill="white"/>
<rect x="50.9132" y="150" width="50" height="25" transform="rotate(90 50.9132 150)" fill="white"/>
<path d="M0.913207 175C0.913208 188.807 12.1061 200 25.9132 200L25.9132 150C12.1061 150 0.913206 161.193 0.913207 175Z" fill="white"/>
<rect width="50" height="50" transform="matrix(4.37114e-08 1 1 -4.37114e-08 0.913208 100)" fill="#FF9E66"/>
<rect width="50" height="50" transform="matrix(-4.37114e-08 -1 -1 4.37114e-08 50.9132 100)" fill="#FFBE99"/>
<rect x="0.913208" y="50" width="50" height="50" transform="rotate(-90 0.913208 50)" fill="#FF9E66"/>
<path d="M0.913214 50C7.47931 50 13.9811 48.7067 20.0474 46.194C26.1137 43.6812 31.6256 39.9983 36.2685 35.3553C40.9115 30.7124 44.5944 25.2004 47.1072 19.1342C49.6199 13.0679 50.9132 6.56609 50.9132 0L0.913212 6.00027e-06L0.913214 50Z" fill="#FFBE99"/>
<rect x="100.913" y="150" width="50" height="50" transform="rotate(90 100.913 150)" fill="white"/>
<rect width="50" height="50" transform="matrix(4.37114e-08 1 1 -4.37114e-08 50.9132 100)" fill="white"/>
<path d="M50.9132 150C57.4793 150 63.9811 148.707 70.0474 146.194C76.1137 143.681 81.6256 139.998 86.2685 135.355C90.9115 130.712 94.5944 125.2 97.1072 119.134C99.6199 113.068 100.913 106.566 100.913 100L50.9132 100L50.9132 150Z" fill="#FF9E66"/>
<rect width="50" height="50" transform="matrix(-4.37114e-08 -1 -1 4.37114e-08 100.913 100)" fill="#FF9E66"/>
<path d="M50.9132 50C57.4793 50 63.9811 51.2933 70.0474 53.806C76.1137 56.3188 81.6256 60.0017 86.2685 64.6447C90.9115 69.2876 94.5944 74.7996 97.1072 80.8658C99.6199 86.9321 100.913 93.4339 100.913 100L50.9132 100L50.9132 50Z" fill="#FFBE99"/>
<rect x="50.9132" y="50" width="50" height="50" transform="rotate(-90 50.9132 50)" fill="#FF9E66"/>
<rect x="75.9132" y="50" width="50" height="25" transform="rotate(-90 75.9132 50)" fill="white"/>
<path d="M50.9132 25C50.9132 11.1929 62.1061 -4.89256e-07 75.9132 -1.09278e-06L75.9132 50C62.1061 50 50.9132 38.8071 50.9132 25Z" fill="white"/>
<rect x="150.913" y="150" width="50" height="50" transform="rotate(90 150.913 150)" fill="white"/>
<rect x="150.913" y="150" width="50" height="25" transform="rotate(90 150.913 150)" fill="#FFBE99"/>
<path d="M100.913 175C100.913 188.807 112.106 200 125.913 200L125.913 150C112.106 150 100.913 161.193 100.913 175Z" fill="#FFBE99"/>
<rect width="50" height="50" transform="matrix(4.37114e-08 1 1 -4.37114e-08 100.913 100)" fill="white"/>
<path d="M150.913 150C144.347 150 137.845 148.707 131.779 146.194C125.713 143.681 120.201 139.998 115.558 135.355C110.915 130.712 107.232 125.2 104.719 119.134C102.206 113.068 100.913 106.566 100.913 100L150.913 100L150.913 150Z" fill="#FF9E66"/>
<rect width="50" height="50" transform="matrix(-4.37114e-08 -1 -1 4.37114e-08 150.913 100)" fill="#FF9E66"/>
<rect x="100.913" y="50" width="50" height="50" transform="rotate(-90 100.913 50)" fill="white"/>
<rect x="200.913" y="150" width="50" height="50" transform="rotate(90 200.913 150)" fill="url(#paint0_linear_403_459)"/>
<rect width="50" height="50" transform="matrix(4.37114e-08 1 1 -4.37114e-08 150.913 100)" fill="url(#paint1_linear_403_459)"/>
<rect width="50" height="50" transform="matrix(-4.37114e-08 -1 -1 4.37114e-08 200.913 100)" fill="url(#paint2_linear_403_459)"/>
<rect width="50" height="25" transform="matrix(-4.37114e-08 -1 -1 4.37114e-08 200.913 100)" fill="url(#paint3_linear_403_459)"/>
<path d="M150.913 75C150.913 88.8071 162.106 100 175.913 100L175.913 50C162.106 50 150.913 61.1929 150.913 75Z" fill="#FFBE99"/>
<rect x="150.913" y="50" width="50" height="50" transform="rotate(-90 150.913 50)" fill="url(#paint4_linear_403_459)"/>
<rect x="150.913" y="50" width="50" height="25" transform="rotate(-90 150.913 50)" fill="white"/>
<path d="M193.324 28.7947C193.324 17.0833 183.83 7.58936 172.119 7.58936L172.119 50.0001C183.83 50.0001 193.324 40.5061 193.324 28.7947Z" fill="url(#paint5_linear_403_459)"/>
<defs>
<linearGradient id="paint0_linear_403_459" x1="225.913" y1="150" x2="225.913" y2="200" gradientUnits="userSpaceOnUse">
<stop stop-color="#FFBE99" stop-opacity="0"/>
<stop offset="1" stop-color="#FFBE99"/>
</linearGradient>
<linearGradient id="paint1_linear_403_459" x1="25" y1="0" x2="25" y2="50" gradientUnits="userSpaceOnUse">
<stop stop-color="#FF9E66"/>
<stop offset="1" stop-color="#FF9E66" stop-opacity="0"/>
</linearGradient>
<linearGradient id="paint2_linear_403_459" x1="25" y1="0" x2="25" y2="50" gradientUnits="userSpaceOnUse">
<stop stop-color="#FF9E66" stop-opacity="0"/>
<stop offset="0.766167" stop-color="#FF9E66"/>
</linearGradient>
<linearGradient id="paint3_linear_403_459" x1="25" y1="0" x2="25" y2="25" gradientUnits="userSpaceOnUse">
<stop stop-color="#FFBE99" stop-opacity="0"/>
<stop offset="1" stop-color="#FFBE99"/>
</linearGradient>
<linearGradient id="paint4_linear_403_459" x1="175.913" y1="50" x2="175.913" y2="100" gradientUnits="userSpaceOnUse">
<stop stop-color="#FFBE99"/>
<stop offset="0.159375" stop-color="#FFBE99" stop-opacity="0"/>
</linearGradient>
<linearGradient id="paint5_linear_403_459" x1="193.324" y1="28.7947" x2="172.119" y2="28.7947" gradientUnits="userSpaceOnUse">
<stop stop-color="white"/>
<stop offset="1" stop-color="white" stop-opacity="0"/>
</linearGradient>
</defs>
</svg>
