<svg width="36" height="36" viewBox="0 0 36 36" fill="none" xmlns="http://www.w3.org/2000/svg">
<rect x="1" y="1" width="34" height="34" rx="5" fill="#FFF5F0"/>
<rect x="1" y="1" width="34" height="34" rx="5" stroke="#262626" stroke-width="2"/>
<path d="M9.25 15.2242V22.375C9.25 23.7557 10.3693 24.875 11.75 24.875H24.25C25.6307 24.875 26.75 23.7557 26.75 22.375V15.2242L19.3102 19.8026C18.5067 20.297 17.4933 20.297 16.6898 19.8026L9.25 15.2242Z" fill="#262626"/>
<path d="M26.75 13.7565V13.625C26.75 12.2443 25.6307 11.125 24.25 11.125H11.75C10.3693 11.125 9.25 12.2443 9.25 13.625V13.7565L17.3449 18.738C17.7466 18.9852 18.2534 18.9852 18.6551 18.738L26.75 13.7565Z" fill="#262626"/>
</svg>
