<svg width="184" height="40" viewBox="0 0 184 40" fill="none" xmlns="http://www.w3.org/2000/svg">
<path d="M12.6533 19.9999L20.9867 11.6666L29.32 19.9999L20.9867 28.3333L12.6533 19.9999Z" fill="#1A1A1A"/>
<path d="M37.6533 9.99992V19.9999L20.9867 3.33325H30.9867L37.6533 9.99992Z" fill="#1A1A1A"/>
<path d="M37.6533 29.9999V19.9999L20.9867 36.6666H30.9867L37.6533 29.9999Z" fill="#1A1A1A"/>
<path d="M4.32001 29.9999V19.9999L20.9867 36.6666H10.9867L4.32001 29.9999Z" fill="#1A1A1A"/>
<path d="M4.32001 9.99992V19.9999L20.9867 3.33325H10.9867L4.32001 9.99992Z" fill="#1A1A1A"/>
<path d="M47.6333 27.4999V12.3332H50.125V27.4999H47.6333ZM49.345 27.4999V25.2249H57.275V27.4999H49.345Z" fill="#262626"/>
<path d="M59.2424 27.4999V17.0999H61.6258V27.4999H59.2424ZM60.4341 15.1932C60.0297 15.1932 59.6902 15.056 59.4158 14.7816C59.1558 14.5071 59.0258 14.1677 59.0258 13.7632C59.0258 13.3588 59.1558 13.0193 59.4158 12.7449C59.6902 12.4705 60.0297 12.3332 60.4341 12.3332C60.853 12.3332 61.1924 12.4705 61.4524 12.7449C61.7124 13.0193 61.8424 13.3588 61.8424 13.7632C61.8424 14.1677 61.7124 14.5071 61.4524 14.7816C61.1924 15.056 60.853 15.1932 60.4341 15.1932Z" fill="#262626"/>
<path d="M65.8806 27.4999V12.7666H68.2639V27.4999H65.8806ZM63.3889 19.2666V17.0999H77.0389V19.2666H63.3889ZM72.1639 27.4999V12.7666H74.5472V27.4999H72.1639Z" fill="#262626"/>
<path d="M78.7715 27.4999V11.8999H81.1549V27.4999H78.7715Z" fill="#262626"/>
<path d="M88.639 27.7166C87.599 27.7166 86.6601 27.4855 85.8224 27.0232C84.999 26.5466 84.3418 25.8966 83.8507 25.0732C83.374 24.2499 83.1357 23.3255 83.1357 22.2999C83.1357 21.2743 83.374 20.3571 83.8507 19.5482C84.3274 18.7249 84.9701 18.0749 85.779 17.5982C86.6024 17.1216 87.5124 16.8832 88.509 16.8832C89.4768 16.8832 90.329 17.1071 91.0657 17.5549C91.8168 18.0027 92.4018 18.6166 92.8207 19.3966C93.254 20.1766 93.4707 21.0649 93.4707 22.0616C93.4707 22.2349 93.4562 22.4155 93.4274 22.6032C93.4129 22.7766 93.384 22.9716 93.3407 23.1882H84.804V21.2382H92.1057L91.2174 22.0182C91.1885 21.3827 91.0657 20.8482 90.849 20.4149C90.6324 19.9816 90.3218 19.6493 89.9174 19.4182C89.5274 19.1871 89.0435 19.0716 88.4657 19.0716C87.859 19.0716 87.3318 19.2016 86.884 19.4616C86.4362 19.7216 86.0896 20.0899 85.844 20.5666C85.5985 21.0288 85.4757 21.5849 85.4757 22.2349C85.4757 22.8849 85.6057 23.4555 85.8657 23.9466C86.1257 24.4377 86.494 24.8205 86.9707 25.0949C87.4474 25.3549 87.9962 25.4849 88.6174 25.4849C89.1518 25.4849 89.6429 25.391 90.0907 25.2032C90.5529 25.0155 90.9429 24.741 91.2607 24.3799L92.7774 25.9182C92.2718 26.5105 91.6579 26.9582 90.9357 27.2616C90.2135 27.5649 89.4479 27.7166 88.639 27.7166Z" fill="#262626"/>
<path d="M100.044 27.4999V12.3332H102.535V27.4999H100.044ZM101.755 27.4999V25.2249H109.685V27.4999H101.755Z" fill="#262626"/>
<path d="M116.103 27.7166C115.063 27.7166 114.124 27.4855 113.287 27.0232C112.463 26.5466 111.806 25.8966 111.315 25.0732C110.838 24.2499 110.6 23.3255 110.6 22.2999C110.6 21.2743 110.838 20.3571 111.315 19.5482C111.792 18.7249 112.434 18.0749 113.243 17.5982C114.067 17.1216 114.977 16.8832 115.973 16.8832C116.941 16.8832 117.793 17.1071 118.53 17.5549C119.281 18.0027 119.866 18.6166 120.285 19.3966C120.718 20.1766 120.935 21.0649 120.935 22.0616C120.935 22.2349 120.92 22.4155 120.892 22.6032C120.877 22.7766 120.848 22.9716 120.805 23.1882H112.268V21.2382H119.57L118.682 22.0182C118.653 21.3827 118.53 20.8482 118.313 20.4149C118.097 19.9816 117.786 19.6493 117.382 19.4182C116.992 19.1871 116.508 19.0716 115.93 19.0716C115.323 19.0716 114.796 19.2016 114.348 19.4616C113.9 19.7216 113.554 20.0899 113.308 20.5666C113.063 21.0288 112.94 21.5849 112.94 22.2349C112.94 22.8849 113.07 23.4555 113.33 23.9466C113.59 24.4377 113.958 24.8205 114.435 25.0949C114.912 25.3549 115.46 25.4849 116.082 25.4849C116.616 25.4849 117.107 25.391 117.555 25.2032C118.017 25.0155 118.407 24.741 118.725 24.3799L120.242 25.9182C119.736 26.5105 119.122 26.9582 118.4 27.2616C117.678 27.5649 116.912 27.7166 116.103 27.7166Z" fill="#262626"/>
<path d="M127.2 27.7166C126.262 27.7166 125.409 27.4782 124.644 27.0016C123.893 26.5249 123.293 25.8821 122.845 25.0732C122.412 24.2499 122.195 23.3327 122.195 22.3216C122.195 21.296 122.412 20.3788 122.845 19.5699C123.293 18.7466 123.893 18.0966 124.644 17.6199C125.409 17.1288 126.262 16.8832 127.2 16.8832C127.995 16.8832 128.695 17.0566 129.302 17.4032C129.923 17.7355 130.414 18.1977 130.775 18.7899C131.137 19.3821 131.317 20.0538 131.317 20.8049V23.7949C131.317 24.546 131.137 25.2177 130.775 25.8099C130.429 26.4021 129.945 26.8716 129.324 27.2182C128.703 27.5505 127.995 27.7166 127.2 27.7166ZM127.59 25.4632C128.472 25.4632 129.179 25.1671 129.714 24.5749C130.263 23.9827 130.537 23.2243 130.537 22.2999C130.537 21.6788 130.414 21.1299 130.169 20.6532C129.923 20.1766 129.577 19.8082 129.129 19.5482C128.695 19.2738 128.183 19.1366 127.59 19.1366C127.013 19.1366 126.5 19.2738 126.052 19.5482C125.619 19.8082 125.272 20.1766 125.012 20.6532C124.767 21.1299 124.644 21.6788 124.644 22.2999C124.644 22.921 124.767 23.4699 125.012 23.9466C125.272 24.4232 125.619 24.7988 126.052 25.0732C126.5 25.3332 127.013 25.4632 127.59 25.4632ZM130.385 27.4999V24.7049L130.797 22.1699L130.385 19.6566V17.0999H132.769V27.4999H130.385Z" fill="#262626"/>
<path d="M135.414 27.4999V17.0999H137.797V27.4999H135.414ZM137.797 21.7149L136.974 21.3032C136.974 19.9888 137.263 18.9271 137.84 18.1182C138.433 17.2949 139.321 16.8832 140.505 16.8832C141.025 16.8832 141.495 16.9771 141.914 17.1649C142.333 17.3527 142.723 17.656 143.084 18.0749L141.524 19.6782C141.336 19.476 141.127 19.3316 140.895 19.2449C140.664 19.1582 140.397 19.1149 140.094 19.1149C139.429 19.1149 138.88 19.3243 138.447 19.7432C138.014 20.1621 137.797 20.8193 137.797 21.7149Z" fill="#262626"/>
<path d="M151.365 27.4999V21.4982C151.365 20.8049 151.141 20.2343 150.694 19.7866C150.26 19.3388 149.697 19.1149 149.004 19.1149C148.541 19.1149 148.13 19.216 147.769 19.4182C147.408 19.6205 147.126 19.9021 146.924 20.2632C146.721 20.6243 146.62 21.036 146.62 21.4982L145.689 20.9782C145.689 20.1838 145.862 19.4832 146.209 18.8766C146.555 18.2555 147.032 17.7716 147.639 17.4249C148.26 17.0638 148.953 16.8832 149.719 16.8832C150.499 16.8832 151.192 17.0855 151.799 17.4899C152.405 17.8799 152.882 18.3927 153.229 19.0282C153.575 19.6493 153.749 20.2993 153.749 20.9782V27.4999H151.365ZM144.237 27.4999V17.0999H146.62V27.4999H144.237Z" fill="#262626"/>
<path d="M161.002 27.7166C159.962 27.7166 159.023 27.4855 158.186 27.0232C157.362 26.5466 156.705 25.8966 156.214 25.0732C155.737 24.2499 155.499 23.3255 155.499 22.2999C155.499 21.2743 155.737 20.3571 156.214 19.5482C156.691 18.7249 157.333 18.0749 158.142 17.5982C158.966 17.1216 159.876 16.8832 160.872 16.8832C161.84 16.8832 162.692 17.1071 163.429 17.5549C164.18 18.0027 164.765 18.6166 165.184 19.3966C165.617 20.1766 165.834 21.0649 165.834 22.0616C165.834 22.2349 165.82 22.4155 165.791 22.6032C165.776 22.7766 165.747 22.9716 165.704 23.1882H157.167V21.2382H164.469L163.581 22.0182C163.552 21.3827 163.429 20.8482 163.212 20.4149C162.996 19.9816 162.685 19.6493 162.281 19.4182C161.891 19.1871 161.407 19.0716 160.829 19.0716C160.222 19.0716 159.695 19.2016 159.247 19.4616C158.8 19.7216 158.453 20.0899 158.207 20.5666C157.962 21.0288 157.839 21.5849 157.839 22.2349C157.839 22.8849 157.969 23.4555 158.229 23.9466C158.489 24.4377 158.857 24.8205 159.334 25.0949C159.811 25.3549 160.36 25.4849 160.981 25.4849C161.515 25.4849 162.006 25.391 162.454 25.2032C162.916 25.0155 163.306 24.741 163.624 24.3799L165.141 25.9182C164.635 26.5105 164.021 26.9582 163.299 27.2616C162.577 27.5649 161.811 27.7166 161.002 27.7166Z" fill="#262626"/>
<path d="M167.745 27.4999V17.0999H170.128V27.4999H167.745ZM170.128 21.7149L169.305 21.3032C169.305 19.9888 169.593 18.9271 170.171 18.1182C170.763 17.2949 171.652 16.8832 172.836 16.8832C173.356 16.8832 173.826 16.9771 174.245 17.1649C174.663 17.3527 175.053 17.656 175.415 18.0749L173.855 19.6782C173.667 19.476 173.457 19.3316 173.226 19.2449C172.995 19.1582 172.728 19.1149 172.425 19.1149C171.76 19.1149 171.211 19.3243 170.778 19.7432C170.345 20.1621 170.128 20.8193 170.128 21.7149Z" fill="#262626"/>
<path d="M179.737 27.7166C179.159 27.7166 178.603 27.6443 178.068 27.4999C177.534 27.341 177.043 27.1243 176.595 26.8499C176.147 26.561 175.757 26.2143 175.425 25.8099L176.942 24.2932C177.303 24.7121 177.714 25.0299 178.177 25.2466C178.653 25.4488 179.188 25.5499 179.78 25.5499C180.314 25.5499 180.719 25.4705 180.993 25.3116C181.268 25.1527 181.405 24.9216 181.405 24.6182C181.405 24.3005 181.275 24.0549 181.015 23.8816C180.755 23.7082 180.416 23.5638 179.997 23.4482C179.592 23.3182 179.159 23.1882 178.697 23.0582C178.249 22.9282 177.816 22.7549 177.397 22.5382C176.992 22.3071 176.66 21.9966 176.4 21.6066C176.14 21.2166 176.01 20.711 176.01 20.0899C176.01 19.4255 176.162 18.8549 176.465 18.3782C176.783 17.9016 177.223 17.5332 177.787 17.2732C178.364 17.0132 179.051 16.8832 179.845 16.8832C180.683 16.8832 181.419 17.0349 182.055 17.3382C182.705 17.6271 183.247 18.0677 183.68 18.6599L182.163 20.1766C181.86 19.801 181.513 19.5193 181.123 19.3316C180.733 19.1438 180.286 19.0499 179.78 19.0499C179.303 19.0499 178.935 19.1221 178.675 19.2666C178.415 19.411 178.285 19.6205 178.285 19.8949C178.285 20.1838 178.415 20.4077 178.675 20.5666C178.935 20.7255 179.267 20.8627 179.672 20.9782C180.091 21.0938 180.524 21.2238 180.972 21.3682C181.434 21.4982 181.867 21.686 182.272 21.9316C182.691 22.1627 183.03 22.4805 183.29 22.8849C183.55 23.2749 183.68 23.7877 183.68 24.4232C183.68 25.4343 183.326 26.236 182.618 26.8282C181.911 27.4205 180.95 27.7166 179.737 27.7166Z" fill="#262626"/>
</svg>
