<svg width="60" height="60" viewBox="0 0 60 60" fill="none" xmlns="http://www.w3.org/2000/svg">
<rect x="1" y="1" width="58" height="58" rx="9" fill="#FFDECC"/>
<rect x="1" y="1" width="58" height="58" rx="9" stroke="#262626" stroke-width="2"/>
<path fill-rule="evenodd" clip-rule="evenodd" d="M37.9516 19.6512C38.1395 19.793 38.25 20.0147 38.25 20.25V23.9834C38.2503 23.9948 38.2503 24.0061 38.25 24.0173V34.3028C38.25 35.6423 37.3621 36.8194 36.0742 37.1874L34.7542 37.5645C33.1234 38.0305 31.5 36.806 31.5 35.1099C31.5 33.9701 32.2556 32.9684 33.3515 32.6553L35.6621 31.9951C36.306 31.8111 36.75 31.2225 36.75 30.5528V24.9943L27.75 27.5657V37.3028C27.75 38.6423 26.8621 39.8194 25.5742 40.1874L24.2542 40.5645C22.6234 41.0305 21 39.806 21 38.1099C21 36.9701 21.7556 35.9684 22.8515 35.6553L25.1621 34.9951C25.806 34.8111 26.25 34.2225 26.25 33.5528V27.0166C26.2497 27.0053 26.2497 26.994 26.25 26.9827V23.25C26.25 22.9151 26.472 22.6209 26.794 22.5289L37.294 19.5289C37.5202 19.4642 37.7638 19.5095 37.9516 19.6512Z" fill="#262626"/>
</svg>
