<svg width="61" height="60" viewBox="0 0 61 60" fill="none" xmlns="http://www.w3.org/2000/svg">
<rect x="1.66797" y="1" width="58" height="58" rx="9" fill="#FFDECC"/>
<rect x="1.66797" y="1" width="58" height="58" rx="9" stroke="#262626" stroke-width="2"/>
<path d="M29.918 22.5329C28.4025 21.5628 26.6004 21 24.668 21C23.5297 21 22.4355 21.1954 21.418 21.555C21.1183 21.6609 20.918 21.9443 20.918 22.2621V36.5121C20.918 36.7556 21.0361 36.9839 21.2349 37.1245C21.4337 37.265 21.6884 37.3004 21.9179 37.2192C22.7771 36.9156 23.7024 36.75 24.668 36.75C26.663 36.75 28.4912 37.4573 29.918 38.6357V22.5329Z" fill="#262626"/>
<path d="M31.418 38.6357C32.8447 37.4573 34.673 36.75 36.668 36.75C37.6336 36.75 38.5589 36.9156 39.418 37.2192C39.6476 37.3004 39.9022 37.265 40.101 37.1245C40.2998 36.9839 40.418 36.7556 40.418 36.5121V22.2621C40.418 21.9443 40.2176 21.6609 39.9179 21.555C38.9004 21.1954 37.8062 21 36.668 21C34.7355 21 32.9334 21.5628 31.418 22.5329V38.6357Z" fill="#262626"/>
</svg>
