<svg width="61" height="60" viewBox="0 0 61 60" fill="none" xmlns="http://www.w3.org/2000/svg">
<rect x="1.33203" y="1" width="58" height="58" rx="9" fill="#FFDECC"/>
<rect x="1.33203" y="1" width="58" height="58" rx="9" stroke="#262626" stroke-width="2"/>
<path fill-rule="evenodd" clip-rule="evenodd" d="M26.582 24.75C26.582 22.6789 28.261 21 30.332 21C32.4031 21 34.082 22.6789 34.082 24.75C34.082 26.8211 32.4031 28.5 30.332 28.5C28.261 28.5 26.582 26.8211 26.582 24.75Z" fill="#262626"/>
<path fill-rule="evenodd" clip-rule="evenodd" d="M34.082 27.75C34.082 26.0931 35.4252 24.75 37.082 24.75C38.7389 24.75 40.082 26.0931 40.082 27.75C40.082 29.4069 38.7389 30.75 37.082 30.75C35.4252 30.75 34.082 29.4069 34.082 27.75Z" fill="#262626"/>
<path fill-rule="evenodd" clip-rule="evenodd" d="M20.582 27.75C20.582 26.0931 21.9252 24.75 23.582 24.75C25.2389 24.75 26.582 26.0931 26.582 27.75C26.582 29.4069 25.2389 30.75 23.582 30.75C21.9252 30.75 20.582 29.4069 20.582 27.75Z" fill="#262626"/>
<path fill-rule="evenodd" clip-rule="evenodd" d="M24.6419 33.1175C25.8399 31.2444 27.9404 30 30.332 30C32.724 30 34.8247 31.2447 36.0226 33.1182C36.8508 34.4134 37.2091 35.9752 37.041 37.4979C37.0147 37.7359 36.8764 37.947 36.6688 38.0662C34.8014 39.1376 32.6371 39.75 30.332 39.75C28.0269 39.75 25.8626 39.1376 23.9953 38.0662C23.7876 37.947 23.6493 37.7359 23.6231 37.4979C23.455 35.9749 23.8134 34.4129 24.6419 33.1175Z" fill="#262626"/>
<path d="M23.4143 32.2537C23.4023 32.2722 23.3903 32.2907 23.3784 32.3093C22.4129 33.8189 21.9711 35.6167 22.1067 37.389C21.4987 37.2967 20.9087 37.1481 20.3425 36.9487L20.2275 36.9082C20.0178 36.8343 19.8713 36.6439 19.8536 36.4222L19.844 36.3007C19.836 36.2014 19.832 36.1011 19.832 36C19.832 33.9851 21.4211 32.3414 23.4143 32.2537Z" fill="#262626"/>
<path d="M38.5577 37.389C38.6933 35.617 38.2516 33.8196 37.2866 32.3102C37.2745 32.2913 37.2623 32.2725 37.2501 32.2537C39.2432 32.3416 40.832 33.9853 40.832 36C40.832 36.1011 40.828 36.2014 40.8201 36.3007L40.8104 36.4222C40.7928 36.6439 40.6463 36.8343 40.4366 36.9082L40.3216 36.9487C39.7554 37.1481 39.1656 37.2966 38.5577 37.389Z" fill="#262626"/>
</svg>
