<svg width="61" height="60" viewBox="0 0 61 60" fill="none" xmlns="http://www.w3.org/2000/svg">
<rect x="1.33301" y="1" width="58" height="58" rx="9" fill="#FFDECC"/>
<rect x="1.33301" y="1" width="58" height="58" rx="9" stroke="#262626" stroke-width="2"/>
<path fill-rule="evenodd" clip-rule="evenodd" d="M32.9482 19.595C33.2495 19.7629 33.3973 20.1146 33.3066 20.4474L31.315 27.75H38.583C38.8817 27.75 39.1519 27.9272 39.2709 28.2011C39.3899 28.475 39.3351 28.7934 39.1313 29.0118L28.6313 40.2618C28.396 40.5139 28.0191 40.573 27.7178 40.4051C27.4166 40.2372 27.2687 39.8854 27.3595 39.5527L29.3511 32.25H22.083C21.7844 32.25 21.5142 32.0728 21.3952 31.7989C21.2761 31.525 21.331 31.2066 21.5347 30.9883L32.0347 19.7383C32.2701 19.4862 32.647 19.427 32.9482 19.595Z" fill="#262626"/>
</svg>
