<svg width="20" height="20" viewBox="0 0 20 20" fill="none" xmlns="http://www.w3.org/2000/svg">
<path d="M7.9414 1.9429C8.71409 0.62493 10.6194 0.624932 11.3921 1.9429L13.1179 4.88664C13.3999 5.36761 13.8699 5.70904 14.4144 5.8286L17.7474 6.5603C19.2396 6.8879 19.8284 8.69996 18.8137 9.8421L16.5474 12.3931C16.1771 12.8099 15.9976 13.3624 16.0522 13.9173L16.3862 17.3132C16.5358 18.8337 14.9943 19.9536 13.5945 19.3415L10.468 17.9744C9.95719 17.751 9.37631 17.751 8.86547 17.9744L5.73895 19.3415C4.33915 19.9536 2.79772 18.8337 2.94728 17.3132L3.28134 13.9173C3.33592 13.3624 3.15641 12.8099 2.78612 12.3931L0.51977 9.8421C-0.494916 8.69995 0.0938594 6.8879 1.58609 6.5603L4.91907 5.8286C5.46364 5.70904 5.93358 5.36761 6.21556 4.88664L7.9414 1.9429Z" fill="#FF8D4D"/>
</svg>
