<svg width="200" height="200" viewBox="0 0 200 200" fill="none" xmlns="http://www.w3.org/2000/svg">
<g clip-path="url(#clip0_403_499)">
<path d="M0 24.9957L24.9957 0H49.9914V24.9957L24.9957 49.9914H0V24.9957Z" fill="#FFBE99"/>
<path d="M49.9914 0H24.9957V24.9957H49.9914V0Z" fill="#262626"/>
<path d="M0 75.0043L24.9957 49.9915H49.9914V75.0043L24.9957 100H0V75.0043Z" fill="#FFBE99"/>
<path d="M49.9914 49.9915H24.9957V74.9872H49.9914V49.9915Z" fill="#262626"/>
<path d="M0 124.996L24.9957 100H49.9914V124.996L24.9957 149.991H0V124.996Z" fill="#FFBE99"/>
<path d="M49.9914 100H24.9957V124.996H49.9914V100Z" fill="#262626"/>
<path d="M0 174.987L24.9957 149.991H49.9914V174.987L24.9957 200H0V174.987Z" fill="#FFBE99"/>
<path d="M49.9914 149.991H24.9957V174.987H49.9914V149.991Z" fill="#262626"/>
<path d="M49.9914 24.9957L75.0043 0H100V24.9957L75.0043 49.9914H49.9914V24.9957Z" fill="#FFBE99"/>
<path d="M100 0H75.0043V24.9957H100V0Z" fill="#262626"/>
<path d="M49.9914 75.0043L75.0043 49.9915H100V75.0043L75.0043 100H49.9914V75.0043Z" fill="#FFBE99"/>
<path d="M100 49.9915H75.0043V74.9872H100V49.9915Z" fill="#262626"/>
<path d="M49.9914 124.996L75.0043 100H100V124.996L75.0043 149.991H49.9914V124.996Z" fill="#FFBE99"/>
<path d="M100 100H75.0043V124.996H100V100Z" fill="#262626"/>
<path d="M100 24.9957L124.996 0H149.991V24.9957L124.996 49.9914H100V24.9957Z" fill="#FFBE99"/>
<path d="M149.991 0H124.996V24.9957H149.991V0Z" fill="#262626"/>
<path d="M149.991 24.9957L174.987 0H200V24.9957L174.987 49.9914H149.991V24.9957Z" fill="#FFBE99"/>
<path d="M199.983 0H174.987V24.9957H199.983V0Z" fill="#262626"/>
<path d="M100 75.0043L124.996 49.9915H149.991V75.0043L124.996 100H100V75.0043Z" fill="#FFBE99"/>
<path d="M149.991 49.9915H124.996V74.9872H149.991V49.9915Z" fill="#262626"/>
</g>
<defs>
<clipPath id="clip0_403_499">
<rect width="200" height="200" fill="white"/>
</clipPath>
</defs>
</svg>
