<svg width="61" height="60" viewBox="0 0 61 60" fill="none" xmlns="http://www.w3.org/2000/svg">
<rect x="1.66699" y="1" width="58" height="58" rx="9" fill="#FFDECC"/>
<rect x="1.66699" y="1" width="58" height="58" rx="9" stroke="#262626" stroke-width="2"/>
<path d="M37.042 20.25C36.0065 20.25 35.167 21.0895 35.167 22.125V37.875C35.167 38.9105 36.0065 39.75 37.042 39.75H37.792C38.8275 39.75 39.667 38.9105 39.667 37.875V22.125C39.667 21.0895 38.8275 20.25 37.792 20.25H37.042Z" fill="#262626"/>
<path d="M28.417 26.625C28.417 25.5895 29.2565 24.75 30.292 24.75H31.042C32.0775 24.75 32.917 25.5895 32.917 26.625V37.875C32.917 38.9105 32.0775 39.75 31.042 39.75H30.292C29.2565 39.75 28.417 38.9105 28.417 37.875V26.625Z" fill="#262626"/>
<path d="M21.667 31.125C21.667 30.0895 22.5065 29.25 23.542 29.25H24.292C25.3275 29.25 26.167 30.0895 26.167 31.125V37.875C26.167 38.9105 25.3275 39.75 24.292 39.75H23.542C22.5065 39.75 21.667 38.9105 21.667 37.875V31.125Z" fill="#262626"/>
</svg>
