<svg width="37" height="36" viewBox="0 0 37 36" fill="none" xmlns="http://www.w3.org/2000/svg">
<rect x="1.5" y="1" width="34" height="34" rx="5" fill="#FFF5F0"/>
<rect x="1.5" y="1" width="34" height="34" rx="5" stroke="#262626" stroke-width="2"/>
<path fill-rule="evenodd" clip-rule="evenodd" d="M18.5 9.875C14.0127 9.875 10.375 13.5127 10.375 18C10.375 22.4873 14.0127 26.125 18.5 26.125C22.9873 26.125 26.625 22.4873 26.625 18C26.625 13.5127 22.9873 9.875 18.5 9.875ZM19.125 13C19.125 12.6548 18.8452 12.375 18.5 12.375C18.1548 12.375 17.875 12.6548 17.875 13V18C17.875 18.3452 18.1548 18.625 18.5 18.625H22.25C22.5952 18.625 22.875 18.3452 22.875 18C22.875 17.6548 22.5952 17.375 22.25 17.375H19.125V13Z" fill="#262626"/>
</svg>
