<svg width="52" height="52" viewBox="0 0 52 52" fill="none" xmlns="http://www.w3.org/2000/svg">
<rect x="1" y="1" width="50" height="50" rx="7" fill="#FFDECC"/>
<rect x="1" y="1" width="50" height="50" rx="7" stroke="#262626" stroke-width="2"/>
<path d="M33.6676 18.9115H18.3324C17.0441 18.9115 16 19.9556 16 21.2436V30.7563C16 32.0444 17.0441 33.0885 18.3324 33.0885H33.6676C34.9556 33.0885 36 32.0444 36 30.7563V21.2436C36 19.9556 34.9556 18.9115 33.6676 18.9115ZM34.8863 31.3847L34.4423 31.9105L28.2249 26.8362L27.262 27.7524C26.5484 28.4077 25.4516 28.4077 24.738 27.7524L23.7751 26.8362L17.5577 31.9105L17.1137 31.3847L22.9512 26.052L17.0754 20.53L17.4228 20.0697L26 26.5687L34.5771 20.0697L34.9243 20.53L29.0489 26.052L34.8863 31.3847Z" fill="#262626"/>
</svg>
