<svg width="66" height="66" viewBox="0 0 66 66" fill="none" xmlns="http://www.w3.org/2000/svg">
<rect x="0.5" y="0.5" width="65" height="65" rx="32.5" fill="#FFF5F0"/>
<rect x="0.5" y="0.5" width="65" height="65" rx="32.5" stroke="#333333"/>
<mask id="mask0_157_30135" style="mask-type:luminance" maskUnits="userSpaceOnUse" x="9" y="9" width="48" height="48">
<path d="M56.5316 9.5625H9.55908V56.535H56.5316V9.5625Z" fill="white"/>
</mask>
<g mask="url(#mask0_157_30135)">
<path d="M35.3154 16.6705C37.2806 16.9581 39.1499 17.725 40.7316 18.9232C42.0737 19.9298 43.1281 21.2719 43.8471 22.8057C44.4702 24.1477 44.8057 25.6815 44.7578 27.1674C44.7099 27.8864 44.614 28.6053 44.3744 29.2764H44.2785L44.3264 28.2698C44.3744 26.8319 44.2306 25.4419 43.7033 24.0998C43.224 22.6619 42.3613 21.3677 41.3068 20.3132C39.2937 18.396 36.6095 17.3415 33.8295 17.2936C32.0213 17.2637 30.231 17.6553 28.6004 18.4373C26.9698 19.2193 25.5437 20.3703 24.435 21.7991C23.0156 23.7171 22.3349 26.0824 22.5178 28.4615L22.6136 29.6598C22.9971 29.6598 23.5243 29.6598 23.8119 29.9953L23.6681 30.1391L22.8533 30.1871C22.2781 30.235 21.7029 30.4267 21.2716 30.8102C20.7947 31.3221 20.5072 31.9817 20.4567 32.6795C20.2171 34.2133 21.0319 35.795 22.3261 36.6577C23.093 37.1371 24.0516 37.3767 24.9623 37.0891C25.154 36.9933 25.3936 36.8495 25.6333 36.9453C25.7771 36.9933 25.825 37.1371 25.873 37.2809C26.8479 39.2413 28.3394 40.8986 30.1868 42.074C30.5702 42.4095 31.0495 42.6971 31.5288 42.9367C32.3916 43.3202 33.3502 43.6078 34.2609 43.8474L35.7947 44.2309C36.0343 44.2788 36.2261 44.2788 36.4178 44.3747L36.2261 44.4226C35.0278 44.5184 33.9254 44.2788 32.775 43.9433C32.1999 43.7995 31.6726 43.6078 31.1454 43.3681C29.6393 42.601 28.2772 41.5795 27.1192 40.3484L27.215 41.6905C27.263 42.5053 27.215 43.3681 26.9274 44.1829C26.7357 44.7581 26.4002 45.3333 26.0167 45.8126C25.5374 46.2919 24.9623 46.7233 24.3871 47.0588C23.9078 47.3943 23.3805 47.7298 22.8533 47.9216L22.0864 48.1612L22.5178 47.7298L24.0036 46.7712L25.0581 45.9564C25.8668 45.2679 26.4093 44.3184 26.5919 43.2722C26.6878 42.6012 26.6878 41.9302 26.6878 41.2112V39.9171C26.2085 39.246 25.6333 38.5271 25.3936 37.7122C24.5788 38.0957 23.5723 38.0478 22.7574 37.6643C21.9426 37.3288 21.2236 36.7536 20.6964 36.0826C20.1212 35.2677 19.7857 34.3571 19.6898 33.3984C19.594 32.4398 19.7857 31.4812 20.4088 30.7143C20.8402 30.235 21.4633 29.8515 22.0864 29.7077C21.8947 29.0367 21.7988 28.3177 21.7988 27.5988C21.8382 26.014 22.2132 24.4555 22.8989 23.0262C23.5847 21.5969 24.5656 20.3292 25.7771 19.3067C27.0859 18.2107 28.6147 17.4082 30.2601 16.9534C31.9056 16.4986 33.6295 16.4022 35.3154 16.6705Z" fill="#262626"/>
<path d="M41.3066 20.3181C42.3611 21.3726 43.2239 22.6667 43.7032 24.1047C44.2304 25.4468 44.3742 26.8368 44.3263 28.2747L44.2784 29.2812L44.0387 30.0002L43.9428 30.6233L44.0387 33.3075C44.0387 34.314 44.0866 35.3206 43.9908 36.3271L43.847 38.5799C43.7511 39.3468 43.5115 40.0657 43.1759 40.7368C42.6487 41.5995 41.9297 42.3185 41.067 42.8457C40.4439 43.2292 39.7728 43.4209 39.1018 43.6126L37.2804 44.1399L36.4656 44.2837C36.4656 44.3316 36.5135 44.3795 36.6094 44.3795C36.9928 44.6192 37.4242 44.6192 37.8556 44.5713C37.7118 44.9068 37.6639 45.2423 37.7597 45.6257C37.9035 45.9613 38.287 46.153 38.5746 46.2968C39.1497 46.5844 39.7249 46.6323 40.3001 46.7282C40.6356 47.0157 40.9711 47.3992 41.067 47.8785C41.1628 48.262 41.1628 48.6454 40.9711 48.9809C40.7314 49.4602 40.3001 49.8437 39.8208 50.0833C39.1977 50.4668 38.5266 50.7544 37.8077 50.9461C34.3082 51.7838 30.6587 51.7674 27.1669 50.8982C26.3521 50.7064 25.5852 50.4668 24.8663 50.0833C24.2911 49.7958 23.7638 49.4602 23.3325 49.0289C23.0928 48.6933 22.9011 48.3578 22.8532 47.9264C23.3804 47.7347 23.9076 47.3992 24.3869 47.0637C24.9621 46.7282 25.5373 46.2968 26.0166 45.8175C26.4001 45.3382 26.7356 44.763 26.9273 44.1878C27.2149 43.373 27.2628 42.5102 27.2149 41.6954L27.119 40.3533L28.1735 41.4557C29.0842 42.1747 30.0907 42.8937 31.1452 43.373C31.6725 43.6126 32.1997 43.8044 32.7749 43.9482C33.9252 44.2837 35.0276 44.5233 36.2259 44.4275L36.4177 44.3795C36.2259 44.2837 36.0342 44.2837 35.7945 44.2357L34.2608 43.8523C33.3501 43.6126 32.3914 43.3251 31.5287 42.9416L30.1387 42.1268C29.6114 41.6954 29.0363 41.3119 28.557 40.8326C27.4496 39.8274 26.5393 38.6246 25.8728 37.2857C25.8249 37.1419 25.7769 36.9981 25.6332 36.9502C25.3935 36.8544 25.1538 36.9981 24.9621 37.094C24.0514 37.3816 23.0928 37.1419 22.3259 36.6626C21.6787 36.2354 21.1619 35.6381 20.8321 34.9362C20.5023 34.2344 20.3724 33.4552 20.4566 32.6844C20.5045 32.0133 20.7921 31.3423 21.2714 30.815C21.7028 30.4316 22.278 30.2399 22.8532 30.1919L23.668 30.144L23.8118 30.0002C23.5242 29.6647 22.9969 29.6647 22.6135 29.6647L22.5176 28.4664C22.3348 26.0873 23.0155 23.722 24.4349 21.804C25.5435 20.3752 26.9696 19.2242 28.6002 18.4422C30.2309 17.6602 32.0212 17.2686 33.8294 17.2985C36.6094 17.3464 39.2935 18.4009 41.3066 20.3181Z" fill="#FFDECC"/>
<path d="M44.0391 29.9987C44.1829 29.9987 44.1829 30.1904 44.2308 30.2863C44.3746 30.8135 44.4225 31.3887 44.4705 31.9159L44.5663 32.9225C44.6143 33.977 44.6622 34.9835 44.6143 36.038C44.5663 37.0446 44.5663 38.147 44.3746 39.1535C44.171 40.1973 43.7151 41.1753 43.0468 42.0024C42.3784 42.8295 41.5178 43.4805 40.5401 43.8987C39.8212 44.2342 39.0543 44.426 38.2394 44.5218V45.2408C38.2874 45.3846 38.3832 45.4325 38.4791 45.5284C39.0543 45.816 39.5815 45.9118 40.2046 46.0556C40.7798 46.1994 41.355 46.2953 41.9301 46.5829C41.7863 46.7267 41.5946 46.7746 41.4029 46.7746C41.0674 46.8225 40.6839 46.7267 40.3005 46.7267C39.7253 46.6308 39.1501 46.5829 38.5749 46.2953C38.2874 46.1515 37.9039 45.9598 37.7601 45.6242C37.6643 45.2408 37.7122 44.9053 37.856 44.5698C37.4246 44.6177 36.9932 44.6177 36.6098 44.378C36.5139 44.378 36.466 44.3301 36.466 44.2822L37.2808 44.1384L39.1022 43.6111C39.7732 43.4194 40.4443 43.2277 41.0674 42.8442C41.9301 42.317 42.6491 41.598 43.1763 40.7353C43.5119 40.0642 43.7515 39.3453 43.8474 38.5784L43.9912 36.3256C44.087 35.3191 44.0391 34.3125 44.0391 33.3059L43.9432 30.6218L44.0391 29.9987ZM22.0867 31.2928C22.4701 31.2928 22.9015 31.3408 23.1891 31.6284C23.4287 31.8201 23.6684 32.0597 23.7642 32.3473C23.8122 32.4911 23.7642 32.6349 23.6684 32.7308L23.0453 33.1142C22.7098 33.4018 22.7098 34.0249 23.0453 34.3125C23.3329 34.5522 23.7163 34.6959 24.0518 34.8397C24.1477 34.8397 24.2915 34.8877 24.3394 34.9835C24.2915 35.0794 24.1956 35.1273 24.0998 35.1273C23.6204 35.1273 23.1411 34.9835 22.7577 34.6959C22.518 34.5522 22.3742 34.3125 22.3263 34.0728C22.2304 33.6894 22.2304 33.258 22.518 32.9225C22.7098 32.6349 23.0453 32.4911 23.3808 32.3473C23.1891 32.1077 23.0453 31.8201 22.7098 31.7242C22.3742 31.5804 21.9908 31.5804 21.6553 31.4846L22.0867 31.2928Z" fill="#262626"/>
<path d="M42.7441 28.2279C42.9358 28.2279 43.1276 28.2279 43.2234 28.3717C43.4151 28.5154 43.4151 28.851 43.1755 28.9948C43.0317 29.0906 42.8879 29.0906 42.6962 29.0906L41.8334 29.2823C41.8334 29.6179 41.7855 30.0013 41.6417 30.3368C41.5458 30.5765 41.3541 30.7682 41.1624 30.912C40.8748 31.0558 40.5393 30.9599 40.3476 30.7203L40.2038 30.3368C40.06 30.4806 39.9641 30.6244 39.7724 30.7203C39.6286 30.7682 39.5807 30.7203 39.5807 30.5765C39.6286 30.2889 39.7724 30.0492 39.9641 29.8575C40.4688 29.1585 41.1693 28.6248 41.9772 28.3237L42.7441 28.2279ZM31.1448 28.8989C31.672 28.8989 32.1513 28.9948 32.6307 29.0906C33.3017 29.2823 33.9727 29.4741 34.5479 29.9534C34.6917 30.0972 34.9313 30.241 34.9793 30.4327C34.9793 30.5286 34.9793 30.5765 34.8834 30.5765L34.3562 30.3368C33.8769 30.0972 33.3017 29.9534 32.7265 29.8575C32.6307 30.2889 32.5348 30.7203 32.2472 31.1037C32.0555 31.2954 31.8158 31.3913 31.5282 31.3913C31.1448 31.3434 30.7613 31.1517 30.5217 30.8641C30.282 30.5286 30.2341 30.193 30.1862 29.7617L29.5151 29.9534C29.3713 30.0013 29.2275 30.0492 29.0837 30.0013C28.8441 29.9534 28.7482 29.7137 28.7962 29.4741C28.8441 29.2823 29.0358 29.1865 29.2275 29.1386C29.8027 28.8989 30.5217 28.851 31.1448 28.8989Z" fill="#262626"/>
<path d="M32.967 23.4826C33.7339 23.5305 34.5487 23.8181 35.1718 24.2974C35.3156 24.4412 35.5073 24.537 35.5552 24.7288C35.6032 24.8246 35.5073 24.9684 35.4115 24.9205C35.028 24.8726 34.6925 24.6808 34.309 24.585C33.9735 24.4412 33.5901 24.3453 33.2066 24.3453C32.8711 24.2974 32.4877 24.3453 32.1521 24.3932C31.4332 24.4891 30.7142 24.8246 30.0911 25.1601L29.0846 25.5915L29.0366 25.5436C29.0846 25.3519 29.1804 25.1122 29.3242 24.9684C29.6118 24.4891 30.139 24.2015 30.6183 23.9619C31.3373 23.6263 32.1521 23.4346 32.967 23.4826ZM42.2656 23.6743C42.5053 23.7701 42.7928 23.9139 42.9846 24.1536C43.1763 24.3453 43.2242 24.585 43.1763 24.8726L42.0739 24.537C41.7384 24.4412 41.4508 24.4891 41.1153 24.4412C40.7797 24.4412 40.3963 24.4891 40.1087 24.6808L39.4856 25.0643H39.3418C39.2939 24.9205 39.3418 24.7767 39.4377 24.6808C39.6773 24.2495 40.0608 23.9619 40.4922 23.8181C41.0673 23.6263 41.6425 23.5305 42.2656 23.6743Z" fill="#262626"/>
<path d="M38.9095 34.3607V34.4086C38.7178 34.7921 38.3823 35.1276 37.9509 35.2714C37.8071 35.3193 37.6154 35.3193 37.5195 35.2234V35.0317C37.855 34.7921 38.2864 34.6003 38.6699 34.4565L38.9095 34.3607Z" fill="#262626"/>
<path fill-rule="evenodd" clip-rule="evenodd" d="M32.2002 36.0357L31.5292 35.844H31.4813C31.3854 35.7961 31.2416 35.7961 31.1937 35.8919C31.1458 35.9398 31.1937 36.0357 31.2416 36.0357L31.5292 36.1795L31.6251 36.2274C32.7271 36.7841 33.9066 37.1718 35.124 37.3778C35.124 37.7133 35.2199 38.0488 35.4595 38.3364C35.6992 38.6719 36.0347 38.9595 36.4661 39.1033C36.9454 39.295 37.4727 39.2471 37.952 39.0554C38.4313 38.8636 38.8147 38.4802 39.0065 38.0009C39.1023 37.8092 39.1023 37.5695 39.1023 37.3778L39.9651 37.0902V37.0423L40.0609 36.9464C39.5976 36.9419 39.1343 36.9419 38.6709 36.9464C37.2945 37.0661 35.9082 37.0017 34.5489 36.7547L32.6795 36.2274L32.5837 36.1795L32.2002 36.0357ZM35.5075 37.4257C35.5554 37.905 35.9389 38.2885 36.3702 38.5281C36.9454 38.9595 37.904 38.7678 38.2875 38.1447C38.4313 37.953 38.4792 37.7133 38.5271 37.4736V37.4257L37.2809 37.5216L37.3289 37.5695C37.3289 37.7133 37.3768 37.8092 37.2809 37.953C37.1851 38.0967 36.9933 38.0967 36.9454 37.953C36.8496 37.8092 36.8496 37.6654 36.8975 37.5216C36.4985 37.4848 36.099 37.4528 35.6992 37.4257H35.5075Z" fill="#262626"/>
<path d="M30.7624 14.6602H32.6797C35.0283 14.756 37.329 15.1874 39.5817 15.7146C40.9238 16.0502 42.17 16.4815 43.3683 17.1526C43.9914 17.536 44.6624 18.0153 45.1417 18.5905C45.7169 19.2136 46.1004 19.9805 46.2442 20.7953C46.4359 21.8019 46.4359 22.8564 46.1004 23.8629C45.8607 24.5819 45.4293 25.3009 44.8062 25.7802C43.9435 26.4991 42.841 26.9784 41.7386 27.0264C41.6428 27.0743 41.5469 27.0264 41.5469 26.8826L41.9304 26.1157C41.4167 26.6191 40.7932 26.9965 40.109 27.2181C39.9173 27.266 39.6297 27.314 39.4379 27.2181V26.9784C39.4379 26.2595 39.39 25.5884 39.1983 24.9174C39.0545 24.1505 38.671 23.5274 38.3355 22.8564C38.4314 23.5753 38.3835 24.3422 38.2397 25.0612C38.0959 25.7322 37.8083 26.3074 37.329 26.7867C37.2331 26.9784 36.9935 27.0264 36.8017 26.9305L36.7059 26.595C36.61 26.0678 36.3703 25.5884 36.1307 25.1091C35.6993 24.1505 35.0762 23.3357 34.3572 22.5688C33.3078 21.5196 32.0726 20.6744 30.7145 20.0764C30.785 21.7521 30.6237 23.4296 30.2352 25.0612C30.0434 25.7322 29.7559 26.4033 29.3245 26.9784C29.1807 27.1702 28.989 27.4578 28.7493 27.5536H28.4138C28.4617 26.9784 28.4617 26.4033 28.3659 25.8281C28.27 25.3009 28.1262 24.7257 27.8865 24.2464C27.7428 25.1091 27.2634 25.8281 26.6883 26.4991C26.2569 26.8826 25.8255 27.266 25.2983 27.5536V30.8129L25.3462 32.2509C25.3462 32.3947 25.2024 32.6343 25.0586 32.6822C24.819 32.6343 24.6272 32.5385 24.4355 32.3947C23.8603 32.0112 23.3331 31.5798 22.8538 31.0526C22.0672 30.1796 21.4662 29.1559 21.0872 28.0436C20.7082 26.9313 20.5591 25.7536 20.6489 24.5819C20.809 22.5188 21.5645 20.5464 22.8237 18.9043C24.0829 17.2622 25.7918 16.021 27.7428 15.3312C28.7014 14.9477 29.7079 14.7081 30.7624 14.6602Z" fill="#262626"/>
</g>
</svg>
