<svg width="60" height="61" viewBox="0 0 60 61" fill="none" xmlns="http://www.w3.org/2000/svg">
<g clip-path="url(#clip0_164_31983)">
<path d="M40.002 10.4989L50.0008 0.5H59.9997V10.4989L50.0008 20.4977H40.002V10.4989Z" fill="#FFDECC"/>
<path d="M59.9998 0.5H50.001V10.4989H59.9998V0.5Z" fill="#FF8D4D"/>
<path d="M40.002 30.5034L50.0008 20.4977H59.9997V30.5034L50.0008 40.5023H40.002V30.5034Z" fill="#FFDECC"/>
<path d="M59.9998 20.4977H50.001V30.4966H59.9998V20.4977Z" fill="#FF8D4D"/>
<path d="M19.998 10.4989L30.0038 0.5H40.0026V10.4989L30.0038 20.4977H19.998V10.4989Z" fill="#FFDECC"/>
<path d="M40.0028 0.5H30.0039V10.4989H40.0028V0.5Z" fill="#FF8D4D"/>
<path d="M19.998 30.5034L30.0038 20.4977H40.0026V30.5034L30.0038 40.5023H19.998V30.5034Z" fill="#FFDECC"/>
<path d="M40.0028 20.4977H30.0039V30.4966H40.0028V20.4977Z" fill="#FF8D4D"/>
<path d="M0 10.4989L9.99886 0.5H19.9977V10.4989L9.99886 20.4977H0V10.4989Z" fill="#FFDECC"/>
<path d="M19.9979 0.5H9.99902V10.4989H19.9979V0.5Z" fill="#FF8D4D"/>
<path d="M0 30.5034L9.99886 20.4977H19.9977V30.5034L9.99886 40.5023H0V30.5034Z" fill="#FFDECC"/>
<path d="M19.9979 20.4977H9.99902V30.4966H19.9979V20.4977Z" fill="#FF8D4D"/>
<path d="M40.002 50.5011L50.0008 40.5023H59.9997V50.5011L50.0008 60.5H40.002V50.5011Z" fill="#FFDECC"/>
<path d="M59.9998 40.5023H50.001V50.5011H59.9998V40.5023Z" fill="#FF8D4D"/>
<path d="M19.998 50.5011L30.0038 40.5023H40.0026V50.5011L30.0038 60.5H19.998V50.5011Z" fill="#FFDECC"/>
<path d="M40.0028 40.5023H30.0039V50.5011H40.0028V40.5023Z" fill="#FF8D4D"/>
<path d="M0 50.5011L9.99886 40.5023H19.9977V50.5011L9.99886 60.5H0V50.5011Z" fill="#FFDECC"/>
<path d="M19.9979 40.5023H9.99902V50.5011H19.9979V40.5023Z" fill="#FF8D4D"/>
</g>
<defs>
<clipPath id="clip0_164_31983">
<rect width="60" height="60" fill="white" transform="translate(0 0.5)"/>
</clipPath>
</defs>
</svg>
