<svg width="156" height="34" viewBox="0 0 156 34" fill="none" xmlns="http://www.w3.org/2000/svg">
<path d="M10.272 16.9999L17.3553 9.91658L24.4387 16.9999L17.3553 24.0833L10.272 16.9999Z" fill="#1A1A1A"/>
<path d="M31.522 8.49992V16.9999L17.3553 2.83325H25.8553L31.522 8.49992Z" fill="#1A1A1A"/>
<path d="M31.522 25.4999V16.9999L17.3553 31.1666H25.8553L31.522 25.4999Z" fill="#1A1A1A"/>
<path d="M3.18867 25.4999V16.9999L17.3553 31.1666H8.85534L3.18867 25.4999Z" fill="#1A1A1A"/>
<path d="M3.18867 8.49992V16.9999L17.3553 2.83325H8.85534L3.18867 8.49992Z" fill="#1A1A1A"/>
<path d="M40.005 23.375V10.4833H42.1229V23.375H40.005ZM41.4599 23.375V21.4412H48.2004V23.375H41.4599Z" fill="#262626"/>
<path d="M49.8727 23.375V14.535H51.8985V23.375H49.8727ZM50.8856 12.9143C50.5418 12.9143 50.2533 12.7977 50.02 12.5644C49.799 12.3311 49.6885 12.0426 49.6885 11.6988C49.6885 11.355 49.799 11.0665 50.02 10.8332C50.2533 10.6 50.5418 10.4833 50.8856 10.4833C51.2417 10.4833 51.5302 10.6 51.7512 10.8332C51.9722 11.0665 52.0827 11.355 52.0827 11.6988C52.0827 12.0426 51.9722 12.3311 51.7512 12.5644C51.5302 12.7977 51.2417 12.9143 50.8856 12.9143Z" fill="#262626"/>
<path d="M55.5151 23.375V10.8517H57.5409V23.375H55.5151ZM53.3972 16.3767V14.535H64.9997V16.3767H53.3972ZM60.8559 23.375V10.8517H62.8818V23.375H60.8559Z" fill="#262626"/>
<path d="M66.4725 23.375V10.115H68.4983V23.375H66.4725Z" fill="#262626"/>
<path d="M74.8598 23.5592C73.9758 23.5592 73.1778 23.3627 72.4656 22.9698C71.7658 22.5647 71.2072 22.0122 70.7897 21.3123C70.3846 20.6125 70.182 19.8267 70.182 18.955C70.182 18.0833 70.3846 17.3036 70.7897 16.6161C71.1949 15.9162 71.7413 15.3637 72.4288 14.9586C73.1286 14.5534 73.9021 14.3508 74.7493 14.3508C75.5719 14.3508 76.2963 14.5411 76.9225 14.9217C77.5609 15.3024 78.0582 15.8242 78.4142 16.4872C78.7826 17.1502 78.9667 17.9052 78.9667 18.7524C78.9667 18.8997 78.9544 19.0532 78.9299 19.2128C78.9176 19.3602 78.8931 19.5259 78.8562 19.7101H71.6001V18.0526H77.8065L77.0514 18.7156C77.0268 18.1754 76.9225 17.7211 76.7383 17.3527C76.5541 16.9844 76.2902 16.702 75.9464 16.5056C75.6149 16.3091 75.2036 16.2109 74.7125 16.2109C74.1968 16.2109 73.7487 16.3214 73.3681 16.5424C72.9874 16.7634 72.6928 17.0765 72.4841 17.4817C72.2753 17.8745 72.171 18.3472 72.171 18.8997C72.171 19.4522 72.2815 19.9372 72.5025 20.3547C72.7235 20.7721 73.0366 21.0975 73.4417 21.3307C73.8469 21.5517 74.3134 21.6622 74.8414 21.6622C75.2957 21.6622 75.7131 21.5824 76.0937 21.4228C76.4866 21.2632 76.8181 21.0299 77.0882 20.723L78.3774 22.0306C77.9477 22.534 77.4259 22.9146 76.812 23.1724C76.1981 23.4302 75.5474 23.5592 74.8598 23.5592Z" fill="#262626"/>
<path d="M84.5539 23.375V10.4833H86.6718V23.375H84.5539ZM86.0088 23.375V21.4412H92.7493V23.375H86.0088Z" fill="#262626"/>
<path d="M98.2044 23.5592C97.3204 23.5592 96.5223 23.3627 95.8102 22.9698C95.1104 22.5647 94.5517 22.0122 94.1343 21.3123C93.7291 20.6125 93.5265 19.8267 93.5265 18.955C93.5265 18.0833 93.7291 17.3036 94.1343 16.6161C94.5395 15.9162 95.0858 15.3637 95.7734 14.9586C96.4732 14.5534 97.2467 14.3508 98.0939 14.3508C98.9165 14.3508 99.6409 14.5411 100.267 14.9217C100.905 15.3024 101.403 15.8242 101.759 16.4872C102.127 17.1502 102.311 17.9052 102.311 18.7524C102.311 18.8997 102.299 19.0532 102.274 19.2128C102.262 19.3602 102.238 19.5259 102.201 19.7101H94.9446V18.0526H101.151L100.396 18.7156C100.371 18.1754 100.267 17.7211 100.083 17.3527C99.8987 16.9844 99.6347 16.702 99.291 16.5056C98.9595 16.3091 98.5482 16.2109 98.057 16.2109C97.5414 16.2109 97.0932 16.3214 96.7126 16.5424C96.332 16.7634 96.0373 17.0765 95.8286 17.4817C95.6199 17.8745 95.5155 18.3472 95.5155 18.8997C95.5155 19.4522 95.626 19.9372 95.847 20.3547C96.068 20.7721 96.3811 21.0975 96.7863 21.3307C97.1915 21.5517 97.658 21.6622 98.186 21.6622C98.6402 21.6622 99.0577 21.5824 99.4383 21.4228C99.8312 21.2632 100.163 21.0299 100.433 20.723L101.722 22.0306C101.292 22.534 100.77 22.9146 100.157 23.1724C99.5427 23.4302 98.8919 23.5592 98.2044 23.5592Z" fill="#262626"/>
<path d="M107.637 23.5592C106.839 23.5592 106.115 23.3566 105.464 22.9514C104.825 22.5462 104.316 21.9999 103.935 21.3123C103.567 20.6125 103.383 19.8329 103.383 18.9734C103.383 18.1017 103.567 17.322 103.935 16.6345C104.316 15.9347 104.825 15.3822 105.464 14.977C106.115 14.5595 106.839 14.3508 107.637 14.3508C108.312 14.3508 108.908 14.4982 109.423 14.7928C109.951 15.0752 110.369 15.4681 110.676 15.9715C110.983 16.4749 111.136 17.0458 111.136 17.6842V20.2257C111.136 20.8642 110.983 21.4351 110.676 21.9385C110.381 22.4419 109.97 22.8409 109.442 23.1356C108.914 23.418 108.312 23.5592 107.637 23.5592ZM107.969 21.6438C108.717 21.6438 109.319 21.3921 109.773 20.8887C110.24 20.3854 110.473 19.7408 110.473 18.955C110.473 18.427 110.369 17.9605 110.16 17.5553C109.951 17.1502 109.657 16.8371 109.276 16.6161C108.908 16.3828 108.472 16.2662 107.969 16.2662C107.477 16.2662 107.042 16.3828 106.661 16.6161C106.293 16.8371 105.998 17.1502 105.777 17.5553C105.568 17.9605 105.464 18.427 105.464 18.955C105.464 19.4829 105.568 19.9495 105.777 20.3547C105.998 20.7598 106.293 21.079 106.661 21.3123C107.042 21.5333 107.477 21.6438 107.969 21.6438ZM110.344 23.375V20.9992L110.694 18.8445L110.344 16.7082V14.535H112.37V23.375H110.344Z" fill="#262626"/>
<path d="M114.618 23.375V14.535H116.644V23.375H114.618ZM116.644 18.4577L115.944 18.1078C115.944 16.9905 116.19 16.0881 116.681 15.4006C117.184 14.7007 117.94 14.3508 118.946 14.3508C119.388 14.3508 119.787 14.4306 120.143 14.5902C120.499 14.7499 120.831 15.0077 121.138 15.3637L119.812 16.7266C119.652 16.5547 119.474 16.4319 119.278 16.3582C119.081 16.2846 118.854 16.2477 118.596 16.2477C118.032 16.2477 117.565 16.4258 117.197 16.7818C116.828 17.1379 116.644 17.6965 116.644 18.4577Z" fill="#262626"/>
<path d="M128.177 23.375V18.2736C128.177 17.6842 127.987 17.1993 127.606 16.8187C127.238 16.438 126.759 16.2477 126.17 16.2477C125.777 16.2477 125.427 16.3337 125.12 16.5056C124.813 16.6775 124.574 16.9169 124.402 17.2238C124.23 17.5308 124.144 17.8807 124.144 18.2736L123.352 17.8316C123.352 17.1563 123.499 16.5608 123.794 16.0452C124.089 15.5172 124.494 15.1059 125.01 14.8112C125.537 14.5043 126.127 14.3508 126.778 14.3508C127.441 14.3508 128.03 14.5227 128.546 14.8665C129.061 15.198 129.466 15.6339 129.761 16.1741C130.056 16.702 130.203 17.2545 130.203 17.8316V23.375H128.177ZM122.118 23.375V14.535H124.144V23.375H122.118Z" fill="#262626"/>
<path d="M136.369 23.5592C135.485 23.5592 134.687 23.3627 133.974 22.9698C133.275 22.5647 132.716 22.0122 132.299 21.3123C131.893 20.6125 131.691 19.8267 131.691 18.955C131.691 18.0833 131.893 17.3036 132.299 16.6161C132.704 15.9162 133.25 15.3637 133.938 14.9586C134.637 14.5534 135.411 14.3508 136.258 14.3508C137.081 14.3508 137.805 14.5411 138.431 14.9217C139.07 15.3024 139.567 15.8242 139.923 16.4872C140.291 17.1502 140.476 17.9052 140.476 18.7524C140.476 18.8997 140.463 19.0532 140.439 19.2128C140.426 19.3602 140.402 19.5259 140.365 19.7101H133.109V18.0526H139.315L138.56 18.7156C138.536 18.1754 138.431 17.7211 138.247 17.3527C138.063 16.9844 137.799 16.702 137.455 16.5056C137.124 16.3091 136.712 16.2109 136.221 16.2109C135.706 16.2109 135.257 16.3214 134.877 16.5424C134.496 16.7634 134.202 17.0765 133.993 17.4817C133.784 17.8745 133.68 18.3472 133.68 18.8997C133.68 19.4522 133.79 19.9372 134.011 20.3547C134.232 20.7721 134.545 21.0975 134.951 21.3307C135.356 21.5517 135.822 21.6622 136.35 21.6622C136.804 21.6622 137.222 21.5824 137.603 21.4228C137.995 21.2632 138.327 21.0299 138.597 20.723L139.886 22.0306C139.456 22.534 138.935 22.9146 138.321 23.1724C137.707 23.4302 137.056 23.5592 136.369 23.5592Z" fill="#262626"/>
<path d="M142.099 23.375V14.535H144.125V23.375H142.099ZM144.125 18.4577L143.425 18.1078C143.425 16.9905 143.671 16.0881 144.162 15.4006C144.666 14.7007 145.421 14.3508 146.427 14.3508C146.869 14.3508 147.268 14.4306 147.625 14.5902C147.981 14.7499 148.312 15.0077 148.619 15.3637L147.293 16.7266C147.133 16.5547 146.955 16.4319 146.759 16.3582C146.562 16.2846 146.335 16.2477 146.077 16.2477C145.513 16.2477 145.046 16.4258 144.678 16.7818C144.309 17.1379 144.125 17.6965 144.125 18.4577Z" fill="#262626"/>
<path d="M152.293 23.5592C151.802 23.5592 151.329 23.4978 150.875 23.375C150.42 23.2399 150.003 23.0558 149.622 22.8225C149.242 22.5769 148.91 22.2823 148.628 21.9385L149.917 20.6493C150.224 21.0054 150.574 21.2755 150.967 21.4597C151.372 21.6315 151.826 21.7175 152.33 21.7175C152.784 21.7175 153.128 21.65 153.361 21.5149C153.594 21.3799 153.711 21.1834 153.711 20.9256C153.711 20.6555 153.6 20.4467 153.379 20.2994C153.158 20.1521 152.87 20.0293 152.514 19.9311C152.17 19.8206 151.802 19.7101 151.409 19.5996C151.028 19.4891 150.66 19.3417 150.304 19.1576C149.96 18.9611 149.678 18.6972 149.457 18.3657C149.236 18.0342 149.125 17.6044 149.125 17.0765C149.125 16.5117 149.254 16.0267 149.512 15.6216C149.782 15.2164 150.157 14.9033 150.635 14.6823C151.126 14.4613 151.71 14.3508 152.385 14.3508C153.097 14.3508 153.723 14.4797 154.263 14.7376C154.816 14.9831 155.276 15.3576 155.645 15.861L154.356 17.1502C154.098 16.8309 153.803 16.5915 153.472 16.4319C153.14 16.2723 152.759 16.1925 152.33 16.1925C151.925 16.1925 151.611 16.2539 151.39 16.3767C151.169 16.4994 151.059 16.6775 151.059 16.9107C151.059 17.1563 151.169 17.3466 151.39 17.4817C151.611 17.6167 151.894 17.7334 152.238 17.8316C152.594 17.9298 152.962 18.0403 153.343 18.1631C153.735 18.2736 154.104 18.4332 154.448 18.6419C154.804 18.8384 155.092 19.1085 155.313 19.4522C155.534 19.7837 155.645 20.2196 155.645 20.7598C155.645 21.6193 155.344 22.3007 154.742 22.8041C154.141 23.3075 153.324 23.5592 152.293 23.5592Z" fill="#262626"/>
</svg>
