<svg width="37" height="36" viewBox="0 0 37 36" fill="none" xmlns="http://www.w3.org/2000/svg">
<rect x="1.5" y="1" width="34" height="34" rx="5" fill="#FFF5F0"/>
<rect x="1.5" y="1" width="34" height="34" rx="5" stroke="#262626" stroke-width="2"/>
<path fill-rule="evenodd" clip-rule="evenodd" d="M9.75 11.75C9.75 10.3693 10.8693 9.25 12.25 9.25H13.393C14.11 9.25 14.735 9.73796 14.9089 10.4335L15.8304 14.1195C15.9828 14.7294 15.7549 15.3713 15.252 15.7485L14.174 16.557C14.0621 16.641 14.0377 16.7639 14.0692 16.8497C15.0154 19.4329 17.0671 21.4846 19.6503 22.4308C19.7361 22.4623 19.859 22.4379 19.943 22.326L20.7515 21.248C21.1287 20.7451 21.7706 20.5172 22.3805 20.6696L26.0665 21.5911C26.762 21.765 27.25 22.39 27.25 23.107V24.25C27.25 25.6307 26.1307 26.75 24.75 26.75H22.875C15.6263 26.75 9.75 20.8737 9.75 13.625V11.75Z" fill="#262626"/>
</svg>
