<svg width="61" height="60" viewBox="0 0 61 60" fill="none" xmlns="http://www.w3.org/2000/svg">
<rect x="1.66602" y="1" width="58" height="58" rx="9" fill="#FFDECC"/>
<rect x="1.66602" y="1" width="58" height="58" rx="9" stroke="#262626" stroke-width="2"/>
<path d="M29.916 23.3369C29.916 22.9818 29.73 22.6608 29.5148 22.3782C29.2939 22.0881 29.166 21.744 29.166 21.375C29.166 20.3395 30.1734 19.5 31.416 19.5C32.6587 19.5 33.666 20.3395 33.666 21.375C33.666 21.744 33.5381 22.0881 33.3172 22.3782C33.1021 22.6608 32.916 22.9818 32.916 23.3369C32.916 23.6693 33.1937 23.9346 33.5255 23.9148C35.4361 23.8008 37.3159 23.5733 39.1582 23.239C39.3609 23.2022 39.5699 23.2504 39.736 23.3724C39.9021 23.4944 40.0107 23.6793 40.0363 23.8838C40.2603 25.6732 40.3873 27.4926 40.4119 29.3365C40.4168 29.7028 40.1193 29.9999 39.753 30C39.3978 30 39.0768 29.814 38.7942 29.5988C38.5041 29.3779 38.16 29.25 37.791 29.25C36.7555 29.25 35.916 30.2574 35.916 31.5C35.916 32.7426 36.7555 33.75 37.791 33.75C38.16 33.75 38.5041 33.6221 38.7942 33.4012C39.0768 33.186 39.3978 33 39.753 33C40.0634 33 40.3099 33.2617 40.2874 33.5713C40.1688 35.2098 39.9691 36.8261 39.6924 38.4161C39.6381 38.728 39.3939 38.9721 39.0821 39.0264C37.2629 39.343 35.4094 39.5587 33.5275 39.6677C33.1945 39.6869 32.916 39.4205 32.916 39.0869C32.916 38.7318 33.1021 38.4108 33.3172 38.1282C33.5381 37.8381 33.666 37.494 33.666 37.125C33.666 36.0895 32.6587 35.25 31.416 35.25C30.1734 35.25 29.166 36.0895 29.166 37.125C29.166 37.494 29.2939 37.8381 29.5148 38.1282C29.73 38.4108 29.916 38.7318 29.916 39.0869C29.916 39.4485 29.62 39.7405 29.2585 39.7303C27.669 39.6852 26.0984 39.564 24.5501 39.3702C24.3457 39.3446 24.1607 39.236 24.0388 39.0699C23.9168 38.9038 23.8686 38.6948 23.9054 38.4921C24.1982 36.8781 24.4092 35.2354 24.5336 33.5683C24.5566 33.2605 24.3116 33 24.003 33C23.6478 33 23.3268 33.186 23.0442 33.4012C22.7541 33.6221 22.41 33.75 22.041 33.75C21.0055 33.75 20.166 32.7426 20.166 31.5C20.166 30.2574 21.0055 29.25 22.041 29.25C22.41 29.25 22.7541 29.3779 23.0442 29.5988C23.3268 29.814 23.6478 30 24.003 30C24.3693 30 24.6668 29.703 24.6618 29.3367C24.6394 27.7084 24.5346 26.1003 24.3516 24.5163C24.3253 24.2888 24.4044 24.0618 24.5663 23.8999C24.7282 23.7379 24.9553 23.6589 25.1827 23.6852C26.525 23.8403 27.8846 23.9391 29.2591 23.9793C29.6202 23.9899 29.916 23.6982 29.916 23.3369Z" fill="#262626"/>
</svg>
