<svg width="60" height="60" viewBox="0 0 60 60" fill="none" xmlns="http://www.w3.org/2000/svg">
<rect x="1" y="1" width="58" height="58" rx="9" fill="#FFDECC"/>
<rect x="1" y="1" width="58" height="58" rx="9" stroke="#262626" stroke-width="2"/>
<path fill-rule="evenodd" clip-rule="evenodd" d="M27 22.5C27.3349 22.5 27.6291 22.722 27.7211 23.044L28.5343 25.8902C28.8903 27.1359 29.8641 28.1097 31.1099 28.4657L33.956 29.2789C34.278 29.3709 34.5 29.6651 34.5 30C34.5 30.3349 34.278 30.6291 33.956 30.7211L31.1098 31.5343C29.8641 31.8903 28.8903 32.8641 28.5343 34.1099L27.7211 36.956C27.6291 37.278 27.3349 37.5 27 37.5C26.6651 37.5 26.3709 37.278 26.2789 36.956L25.4657 34.1099C25.1097 32.8641 24.1359 31.8903 22.8901 31.5343L20.044 30.7211C19.722 30.6291 19.5 30.3349 19.5 30C19.5 29.6651 19.722 29.3709 20.044 29.2789L22.8901 28.4657C24.1359 28.1097 25.1097 27.1359 25.4657 25.8901L26.2789 23.044C26.3709 22.722 26.6651 22.5 27 22.5Z" fill="#262626"/>
<path fill-rule="evenodd" clip-rule="evenodd" d="M36 19.5C36.3442 19.5 36.6441 19.7342 36.7276 20.0681L36.9865 21.1036C37.2216 22.0441 37.9559 22.7784 38.8964 23.0135L39.9319 23.2724C40.2658 23.3559 40.5 23.6558 40.5 24C40.5 24.3442 40.2658 24.6441 39.9319 24.7276L38.8964 24.9865C37.9559 25.2216 37.2216 25.9559 36.9865 26.8964L36.7276 27.9319C36.6441 28.2658 36.3442 28.5 36 28.5C35.6558 28.5 35.3559 28.2658 35.2724 27.9319L35.0135 26.8964C34.7784 25.9559 34.0441 25.2216 33.1036 24.9865L32.0681 24.7276C31.7342 24.6441 31.5 24.3442 31.5 24C31.5 23.6558 31.7342 23.3559 32.0681 23.2724L33.1036 23.0135C34.0441 22.7784 34.7784 22.0441 35.0135 21.1036L35.2724 20.0681C35.3559 19.7342 35.6558 19.5 36 19.5Z" fill="#262626"/>
<path fill-rule="evenodd" clip-rule="evenodd" d="M34.5 33C34.8228 33 35.1094 33.2066 35.2115 33.5128L35.6058 34.6956C35.7551 35.1435 36.1065 35.4949 36.5544 35.6442L37.7372 36.0385C38.0434 36.1406 38.25 36.4272 38.25 36.75C38.25 37.0728 38.0434 37.3594 37.7372 37.4615L36.5544 37.8558C36.1065 38.0051 35.7551 38.3565 35.6058 38.8044L35.2115 39.9872C35.1094 40.2934 34.8228 40.5 34.5 40.5C34.1772 40.5 33.8906 40.2934 33.7885 39.9872L33.3942 38.8044C33.2449 38.3565 32.8935 38.0051 32.4456 37.8558L31.2628 37.4615C30.9566 37.3594 30.75 37.0728 30.75 36.75C30.75 36.4272 30.9566 36.1406 31.2628 36.0385L32.4456 35.6442C32.8935 35.4949 33.2449 35.1435 33.3942 34.6956L33.7885 33.5128C33.8906 33.2066 34.1772 33 34.5 33Z" fill="#262626"/>
</svg>
